<svg xmlns="http://www.w3.org/2000/svg" xmlns:xlink="http://www.w3.org/1999/xlink" xmlns:lucid="lucid" width="450" height="280"><g transform="translate(-200 -20)" lucid:page-tab-id="0_0"><path d="M728 290.74h320v240H728z" stroke="#cacaca" stroke-width="2" fill="#666"/><path d="M792 530.74l64-240m-128 144l320-120m-320 168h64c64 0 160-48 192-60l64-12m-160-120l16 24c16 24 80 48 80 108" stroke="#cacaca" stroke-width="8" fill="none"/><path d="M788 350.74c18 7.2 18 7.2 36 0 18 7.2 18 7.2 36 0 18 18 18 72-36 90-54-18-54-72-36-90z" stroke="#cacaca" stroke-width="2" fill="#08f"/><path d="M1079.6 491.53c-.52-.53-1.15-.8-1.87-.8h-42.9c-.73 0-1.37.27-1.9.8-.53.54-.8 1.17-.8 1.9v8.03h-6.7c-.75 0-1.57.2-2.45.55-.88.38-1.58.82-2.1 1.35l-8.3 8.3c-.37.36-.68.78-.95 1.25-.27.48-.47.9-.6 1.28-.1.38-.2.9-.26 1.55-.06.66-.1 1.15-.1 1.45-.03.3-.03.83 0 1.6v14.86c-.7 0-1.34.27-1.87.8-.53.54-.8 1.16-.8 1.9 0 .4.06.78.17 1.1.1.32.3.58.56.78.27.2.5.36.7.48.2.12.52.2.98.25l.95.08h1.07c.55 0 .86-.02.95-.02h2.67c0 2.97 1.05 5.5 3.15 7.6 2.08 2.1 4.6 3.14 7.58 3.14 2.96 0 5.48-1.05 7.58-3.15 2.1-2.1 3.14-4.63 3.14-7.6h16.1c0 2.97 1.04 5.5 3.13 7.6 2.1 2.1 4.63 3.14 7.6 3.14 2.95 0 5.48-1.05 7.57-3.15 2.1-2.1 3.14-4.63 3.14-7.6l.94.03h1.08c.16 0 .47-.04.94-.08.46-.04.8-.13.98-.25.2-.12.43-.3.7-.48.26-.2.45-.46.56-.78.12-.32.17-.7.17-1.1V493.4c0-.72-.26-1.35-.8-1.9zm-49.06 51.25c-1.06 1.06-2.3 1.6-3.76 1.6s-2.7-.54-3.78-1.6c-1.06-1.06-1.6-2.32-1.6-3.77 0-1.44.54-2.7 1.6-3.76 1.07-1.06 2.32-1.6 3.78-1.6 1.45 0 2.7.54 3.76 1.6 1.07 1.06 1.6 2.32 1.6 3.77 0 1.46-.53 2.72-1.6 3.78zm1.6-25.23h-16.1v-1.25c0-.36.13-.67.38-.92l8.18-8.17c.25-.25.55-.37.92-.37h6.6zm35.95 25.23c-1.07 1.06-2.33 1.6-3.78 1.6-1.46 0-2.7-.54-3.77-1.6-1.07-1.06-1.6-2.32-1.6-3.77 0-1.44.53-2.7 1.6-3.76 1.06-1.06 2.3-1.6 3.77-1.6 1.45 0 2.7.54 3.77 1.6 1.06 1.06 1.58 2.32 1.58 3.77 0 1.46-.52 2.72-1.6 3.78z" fill="#ffda44"/><path d="M702.33 324.2l12.25 12.2c.67.67 1.88 10.34 1.22 11l-2.43 2.43c-.67.66-1.76.66-2.43 0l-1.27-1.28-9.7-9.7c-3.95-3.95-7.96-7.9-9.84-9.84l-1.22-1.2c-.65-.67-.65-1.77 0-2.44l2.44-2.42c.66-.67 10.32.6 11 1.27z" fill="#d8dbdb"/><path d="M706.88 279.96c-1.82 0-3.34 1.52-3.34 3.35s1.52 3.34 3.34 3.34c1.82 0 3.34-1.5 3.34-3.33 0-1.82-1.52-3.34-3.34-3.34zm10.3 3.64c-1.8 0-3.32 1.52-3.32 3.35 0 1.82 1.5 3.33 3.33 3.33 1.82 0 3.34-1.5 3.34-3.33s-1.52-3.35-3.35-3.35zm37.95 37.34c0-1.83-1.5-3.35-3.34-3.35-1.83 0-3.34 1.5-3.34 3.34 0 1.82 1.5 3.33 3.33 3.33 1.82 0 3.33-1.45 3.33-3.33zm.3 6.97c-1.82 0-3.33 1.53-3.33 3.35s1.5 3.34 3.33 3.34 3.35-1.53 3.35-3.35-1.52-3.34-3.35-3.34z" fill="#676767"/><path d="M733.82 292.95l12.03 12.02c1.33 1.34 14.57 38.3 13.23 39.64l-4.8 4.8c-1.34 1.34-3.46 1.34-4.8 0l-26.52-33.7-33.62-26.4c-1.34-1.32-1.34-3.45 0-4.8l4.8-4.78c1.32-1.33 38.35 11.9 39.68 13.23z" fill="#d8dbdb"/><path d="M764.66 274.14c3.34 3.33.36 11.65-3.58 15.65l-43.4 43.34c-4 4-18.33 12.98-21.66 9.65-3.34-3.35 5.64-17.68 9.64-21.7L749 277.73c4-4 12.33-6.92 15.66-3.58z" fill="#e4e7e7"/><path d="M708.64 324.03l43.34-43.34c3.4-3.4 9.88-6 13.77-4.74-.24-.73-.6-1.34-1.1-1.9-3.32-3.32-11.64-.35-15.65 3.66l-43.34 43.34c-4 4-12.92 18.33-9.64 21.66.48.5 1.27.73 2.24.73.06-5.22 6.98-16.02 10.38-19.42z" fill="#dde0e0"/><path d="M709.6 305.22l6.86 5.33L734 293.02l-.18-.2c-.36-.35-3.76-1.75-8.37-3.5l-15.84 15.9z" fill="#c7caca"/><path d="M728.3 322.5l21.12 26.9c1.22 1.22 3.16 1.27 4.5.24l-23.3-29.43zm-9.7-14.3L688.96 285c-.9 1.34-.8 3.16.37 4.3l26.95 21.13z" fill="#3db39e"/><path d="M716.3 310.43l2.3-2.24-6.7-5.23-2.3 2.25z" fill="#38a592"/><path d="M728 518.74h58v11h-58z" fill="#ecf0f1"/><path d="M744 470.74h26v48h-26z" fill="#556080"/><path d="M728 473.74v45h16v-45M770 473.74v45h16v-45" fill="#8697cb"/><path d="M748 475.74h7v5h-7zM759 475.74h7v5h-7zM774 479.74h8v5h-8zM774 488.74h8v5h-8zM732 479.74h8v5h-8zM732 488.74h8v5h-8zM748 484.74h7v5h-7zM759 484.74h7v5h-7zM748 493.74h7v5h-7zM759 493.74h7v5h-7z" fill="#fff"/><path d="M766 529.74h-18l2-11h14" fill="#ed7161"/><path d="M749 504.74h16v14h-16z" fill="#d0e8f9"/><path d="M765 503.74h-16c-.55 0-1 .45-1 1v14h18v-14c0-.55-.45-1-1-1z" fill="#3d324c"/><path d="M750 505.74h14v13h-14z" fill="#d0e8f9"/><path d="M756 505.74h2v13h-2z" fill="#3d324c"/><path d="M728 507.74c0-4.42 3.58-8 8-8s8 3.58 8 8-3.58 8-8 8-8-3.58-8-8zM770 507.74c0-4.42 3.58-8 8-8s8 3.58 8 8-3.58 8-8 8-8-3.58-8-8z" fill="#a4e869"/><path d="M738.3 508.03l-2.3 2.3-2.3-2.3c-.38-.4-1.02-.4-1.4 0-.4.4-.4 1.03 0 1.42l2.7 2.7v16.6c0 .55.45 1 1 1s1-.45 1-1v-16.6l2.7-2.7c.4-.4.4-1.03 0-1.42-.38-.4-1.02-.4-1.4 0zM781.7 508.03c-.38-.4-1.02-.4-1.4 0l-2.3 2.3-2.3-2.3c-.38-.4-1.02-.4-1.4 0-.4.4-.4 1.03 0 1.42l2.7 2.7v16.6c0 .55.45 1 1 1s1-.45 1-1v-16.6l2.7-2.7c.4-.4.4-1.03 0-1.42z" fill="#7f6e5d"/><path d="M1047.7 580h-3.77v-2h1.76v-2.2h2zm-7.75 0h-5.97v-2h5.97zm-9.95 0h-5.97v-2h5.97zm-9.94 0h-5.97v-2h5.96zm-9.95 0h-5.96v-2h5.97zm-9.94 0h-5.96v-2h5.96zm-9.94 0h-5.97v-2h5.97zm-9.95 0h-5.96v-2h5.97zm-9.94 0h-5.97v-2h5.97zm-9.95 0h-5.97v-2h5.98zm-9.94 0h-5.97v-2h5.97zm-9.95 0h-5.98v-2h5.97zm-9.96 0h-5.96v-2h5.96zm-50.32 0h-5.37v-2h5.37zm-9.35 0h-5.97v-2h5.97zm-9.95 0h-5.96v-2h5.96zm-9.94 0H845v-2H851zm-9.95 0h-5.97v-2h5.97zm-9.94 0h-5.98v-2h5.97zm-9.96 0h-5.97v-2h5.97zm-9.95 0h-5.97v-2h5.96zm-9.95 0h-5.97v-2h5.97zm-9.95 0h-5.96v-2h5.96zm-9.94 0h-5.97v-2h5.96zm-9.95 0h-5.96v-2h5.97zm-9.93 0h-6.44v-1.52h1V578h5.44zm159.13 0h-5.38v-2h5.38zm-163.57-5.5h-2v-5.96h2zm290.66-2.67h-2v-5.96h2zm-290.67-7.27h-2v-5.97h2zm290.66-2.67h-2v-5.98h2zm-290.67-7.3h-2v-5.95h2zm290.66-2.66h-2v-5.97h2zm-290.67-7.27h-2v-5.97h2zM1047.7 542h-2v-3h2zm-290.67-7.28h-2v-2.98h2z" fill="#d8d8d8"/><path fill="#d8d8d8"/><path d="M760.66 546h-9.27l4.63-14.26z" fill="#d8d8d8"/><path d="M762.04 547H750l5.3-16.26h1.45zm-9.27-2h6.52l-3.27-10.03z" fill="#d8d8d8"/><use xlink:href="#a" transform="matrix(1,0,0,1,880.2230999999998,568.2121224511678) translate(0 14.4)"/><path d="M1006.73 308.73h22.54V321h-22.54zM1001.46 329.78h33.08v12.28h-33.08z" fill="#ff382e"/><path d="M1003.22 350.84h29.56v5.27h-29.56z" fill="#de2f1b"/><path d="M996.2 350.84h8.77v21.06h-8.77zM1031.03 350.84h8.77v21.06h-8.77z" fill="#ff382e"/><path d="M1018 301.27c-.73 0-1.3-.6-1.3-1.32v-7.9c0-.72.57-1.3 1.3-1.3.73 0 1.3.58 1.3 1.3v7.9c0 .73-.57 1.32-1.3 1.32z" fill="#1c1918"/><path d="M1018 356.1h13.03v15.8H1018z" fill="#d19884"/><path d="M1004.97 356.1H1018v15.8h-13.03z" fill="#c1765b"/><path d="M1038.05 340.32h-40.1l-5.26 10.52h50.6M1032.78 319.25h-29.56l-5.27 10.53h40.1M1018 298.2l-14.78 10.53h29.56" fill="#3f3736"/><path d="M1036.3 331.1h-36.6c-2.77 0-5.26-1.75-6.2-4.38-.24-.68.12-1.43.8-1.68.7-.25 1.44.12 1.7.8.55 1.58 2.04 2.62 3.7 2.62h36.6c1.66 0 3.15-1.05 3.7-2.63.26-.68 1-1.04 1.7-.8.68.26 1.04 1 .8 1.7-.94 2.62-3.43 4.37-6.2 4.37zM1031.03 310.04h-26.06c-2.77 0-5.26-1.75-6.2-4.37-.24-.7.1-1.44.8-1.7.68-.23 1.44.12 1.68.8.57 1.58 2.06 2.64 3.72 2.64h26.06c1.66 0 3.15-1.05 3.72-2.62.24-.7 1-1.04 1.68-.8.68.25 1.04 1 .8 1.68-.94 2.62-3.43 4.38-6.2 4.38zM1041.56 352.16h-47.12c-2.77 0-5.26-1.76-6.2-4.38-.24-.68.12-1.44.8-1.68.7-.25 1.44.1 1.68.8.57 1.57 2.06 2.63 3.72 2.63h47.12c1.66 0 3.15-1.06 3.72-2.63.24-.7 1-1.05 1.68-.8.68.24 1.04 1 .8 1.68-.94 2.62-3.43 4.38-6.2 4.38z" fill="#3f3736"/><path d="M1031.03 357.42h-26.06c-.73 0-1.32-.58-1.32-1.3 0-.74.6-1.33 1.32-1.33h26.06c.73 0 1.32.58 1.32 1.3 0 .74-.6 1.32-1.32 1.32z" fill="#d19884"/><path d="M1046.52 373.22h-57.04c-.72 0-1.3-.6-1.3-1.32 0-.73.58-1.32 1.3-1.32h57.04c.72 0 1.3.6 1.3 1.32 0 .72-.58 1.32-1.3 1.32z" fill="#ff382e"/><path d="M1022.33 287.32l.03 2.4-2 .03-.03-2.37-.03-.58 2-.1zm-.88-10.23l.4 3.12.23 2.46-2 .18-.2-2.42-.4-3.05-.07-.4 1.98-.33zm-252.6-1.46l-2.74 1.17-.77-1.83 2.75-1.17zm9.18-3.9l-5.5 2.34-.78-1.84 5.5-2.34zm241.66-2.8l.66 2.53.27 1.24-1.96.43-.26-1.2-.63-2.46-.62-2.02 1.9-.6zm-232.5-1.1l-5.5 2.34-.78-1.84 5.5-2.34zm9.2-3.72l-3.92 1.48-1.6.7-.8-1.86 1.65-.7 3.96-1.5zm219.03-5.92l.97 1.93.9 2.03.37.88-1.86.74-.33-.84-.88-1.95-.94-1.86-.35-.64 1.76-.97zm-209.7 2.4l-5.6 2.12-.7-1.87 5.58-2.1zm9.3-3.5l-5.6 2.1-.7-1.87 5.6-2.1zm9.36-3.3l-4.72 1.54-.92.35-.7-1.88.95-.36 4.76-1.57zm185.3-4.16l1.27 1.6 1.2 1.64.8 1.16-1.67 1.12-.76-1.13-1.16-1.58-1.2-1.52-.4-.45 1.5-1.3zm-175.85 1.02l-5.68 1.88-.63-1.9 5.68-1.88zm9.46-3.12l-5.67 1.87-.63-1.9 5.68-1.86zm158.9-5.17l1.67 1.38 1.58 1.4 1.07 1.05-1.4 1.43-1.03-1-1.53-1.36-1.62-1.33-.22-.16 1.2-1.6zm-149.37 2.4l-5.75 1.62-.55-1.93 5.75-1.64zm5.77-1.66l-1.94.56-.55-1.92 2.5-.7zm135.67-5.9l2.2 1.24 2.02 1.28.16.1-1.13 1.66-.13-.1-1.97-1.23-2.1-1.2-.85-.44.92-1.76zm-7.65-3.55l2.76 1.14.4.18-.84 1.8-.37-.16-2.68-1.1-2.44-.9.7-1.88zm-85.45-.44l-5.87 1.16-.38-1.96 5.86-1.15zm75.55-2.7l3.56.98-.53 1.93-3.52-.96-2.23-.5.45-1.96zm-65.75 1.2l-5.9.9-.3-1.97 5.9-.9zm57.3-2.94l2.24.4-.36 1.98-2.2-.4-3.66-.53.3-1.97zm-47.46 1.7l-5.93.65-.22-1.98 5.94-.65zm9.9-.9l-4.6.3-1.33.16-.22-2 1.37-.14 4.63-.32zm26.98-2.07l2.9.27-.2 2-2.86-.3-3.07-.17.12-2zm-17.1 1.6l-4.83.12-1.1.07-.12-2 1.13-.08 4.88-.13zm9.96-2l-.03 2-5.96-.1.03-2zM765.46 275.3l-.1-.26.75 1.77-.16.1-.07-.6-.15-.35-.27-.08-1.74-.2 1.6-.7z" fill="#d8d8d8"/><path d="M1021.36 289.74l-5.87-13.8 9.22-.82z" fill="#d8d8d8"/><path d="M1022.16 290.74h-1.46l-6.67-15.68L1026 274zm-5.2-13.93l4.12 9.7 2.36-10.26z" fill="#d8d8d8"/><use xlink:href="#a" transform="matrix(1,0,0,1,858.5980383027141,226.7153852527823) translate(0 14.4)"/><path d="M220 340h160v120H220z" stroke="#cacaca" stroke-width="2" fill="#0c7cba"/><use xlink:href="#b" transform="matrix(1,0,0,1,228,348) translate(24.623456790123456 56.44444444444444)"/><path d="M300 460v80" stroke="#d8d8d8" stroke-width="2" fill="none"/><path fill="#d8d8d8"/><path fill="#d8d8d8"/><path d="M220 540h160v120H220z" stroke="#cacaca" stroke-width="2" fill="#0c7cba"/><path d="M236 540v120m128-120v120" stroke="#cacaca" stroke-width="2" fill="none"/><use xlink:href="#c" transform="matrix(1,0,0,1,240,540) translate(7.685185185185183 64.44444444444444)"/><path d="M480 380h160v140H480z" stroke="#cacaca" stroke-width="2" fill="#0c7cba"/><use xlink:href="#d" transform="matrix(1,0,0,1,488,388) translate(46.135802469135804 53.111111111111114)"/><use xlink:href="#e" transform="matrix(1,0,0,1,488,388) translate(0.7962962962962905 79.77777777777777)"/><path d="M494.4 401H380v-2h114.4zm232.6 0H559.15v-2H727z" fill="#d8d8d8"/><path fill="#d8d8d8"/><path d="M727 400l-14.27 4.64v-9.28z" fill="#d8d8d8"/><path d="M728 399.27v1.46L711.73 406v-12zm-14.27 4l10.03-3.27-10.03-3.26z" fill="#d8d8d8"/><use xlink:href="#f" transform="matrix(1,0,0,1,494.4019130210355,386.6666666666667) translate(0 17.77777777777778)"/><path d="M445.04 601H380v-2h65.04zM561 601h-66v-2h64v-79h2z" fill="#d8d8d8"/><path fill="#d8d8d8"/><path d="M564.64 534.27h-9.28L560 520z" fill="#d8d8d8"/><path d="M566 535.27h-12l4.95-15.27h2.1zm-9.26-2h6.52L560 523.24z" fill="#d8d8d8"/><use xlink:href="#g" transform="matrix(1,0,0,1,445.04456520456523,589.2) translate(0 14.4)"/><path d="M220 140h160v120H220z" stroke="#cacaca" stroke-width="2" fill="#de5f85"/><use xlink:href="#h" transform="matrix(1,0,0,1,228,148) translate(16.598765432098766 56.44444444444444)"/><path d="M380 200h80" stroke="#d8d8d8" stroke-width="2" fill="none"/><path fill="#d8d8d8"/><path d="M460 200h3" stroke="#d8d8d8" stroke-width="2" fill="none"/><path d="M460 80h200v180H460z" stroke="#cacaca" stroke-width="2" fill="#de5f85"/><use xlink:href="#i" transform="matrix(1,0,0,1,468,88) translate(61.78395061728395 17.77777777777778)"/><use xlink:href="#j" transform="matrix(1,0,0,1,468,88) translate(67.98765432098766 44.44444444444444)"/><path d="M480.8 160c-5.74 0-10.4 4.66-10.4 10.4v19.2c0 5.74-4.66 10.4-10.4 10.4 5.74 0 10.4 4.66 10.4 10.4v19.2c0 5.74 4.66 10.4 10.4 10.4m158.4 0c5.74 0 10.4-4.66 10.4-10.4v-19.2c0-5.74 4.66-10.4 10.4-10.4-5.74 0-10.4-4.66-10.4-10.4v-19.2c0-5.74-4.66-10.4-10.4-10.4" stroke="#cacaca" stroke-width="2" fill="none"/><use xlink:href="#k" transform="matrix(1,0,0,1,475.6,160) translate(0 31.111111111111114)"/><use xlink:href="#l" transform="matrix(1,0,0,1,475.6,160) translate(0 57.77777777777778)"/><path d="M808 40h160v180H808z" stroke="#cacaca" stroke-width="2" fill="#de5f85"/><use xlink:href="#m" transform="matrix(1,0,0,1,816,48) translate(12.864197530864196 33.11111111111111)"/><use xlink:href="#n" transform="matrix(1,0,0,1,816,48) translate(103.97530864197532 33.11111111111111)"/><use xlink:href="#o" transform="matrix(1,0,0,1,816,48) translate(9.160493827160487 59.77777777777778)"/><use xlink:href="#p" transform="matrix(1,0,0,1,816,48) translate(15.395061728395056 86.44444444444443)"/><use xlink:href="#q" transform="matrix(1,0,0,1,816,48) translate(43.635802469135804 113.11111111111111)"/><use xlink:href="#r" transform="matrix(1,0,0,1,816,48) translate(72 139.77777777777777)"/><path d="M561 380h-2v-67.68h2zm-138.5-79H301v39h-2v-41h123.5zm109.08 0H477.5v-2h54.08z" fill="#d8d8d8"/><path fill="#d8d8d8"/><path d="M560 380l-4.64-14.27h9.28z" fill="#d8d8d8"/><path d="M561.05 380h-2.1L554 364.73h12zm-4.3-13.27l3.25 10.03 3.26-10.03z" fill="#d8d8d8"/><use xlink:href="#s" transform="matrix(1,0,0,1,422.5,289.2) translate(0 14.4)"/><path d="M561 379h-2v-66.68h2zm0-88.28h-2V260h2z" fill="#d8d8d8"/><path fill="#d8d8d8"/><path d="M561 380h-2v-1h2z" fill="#d8d8d8"/><use xlink:href="#t" transform="matrix(1,0,0,1,531.575,290.72198522557017) translate(0 14.4)"/><path d="M688 120h100v100H688z" stroke="#cacaca" stroke-width="2" fill="#de5f85"/><use xlink:href="#u" transform="matrix(1,0,0,1,696,128) translate(12.824999999999996 34.8)"/><use xlink:href="#v" transform="matrix(1,0,0,1,696,128) translate(28.775 34.8)"/><use xlink:href="#w" transform="matrix(1,0,0,1,696,128) translate(44.275 34.8)"/><use xlink:href="#x" transform="matrix(1,0,0,1,696,128) translate(60.225 34.8)"/><use xlink:href="#y" transform="matrix(1,0,0,1,696,128) translate(5.125 56.4)"/><path d="M1090 425.6h-41v-2h39V201H906.3v-2H1090zM660 201v-2h181.54v2zM660 201h-3v-2h3z" fill="#d8d8d8"/><path d="M1063.27 429.22L1049 424.6l14.27-4.65z" fill="#d8d8d8"/><path d="M1064.27 430.6l-16.27-5.28v-1.46l16.27-5.28zm-12.03-6l10.03 3.25v-6.52z" fill="#d8d8d8"/><g><use xlink:href="#f" transform="matrix(1,0,0,1,841.5393448252253,186.66666666666666) translate(0 17.77777777777778)"/></g><path d="M711.3 104.62H681V201h-21v-2h19v-96.38h32.3zm95.7 0h-14.8v-2H807zM660 201h-3v-2h3zM808 104.62h-1v-2h1z" fill="#d8d8d8"/><g><use xlink:href="#z" transform="matrix(1,0,0,1,711.2926825731848,92.81901040259528) translate(0 14.4)"/></g><defs><path fill="#fff" d="M115-194c55 1 70 41 70 98S169 2 115 4C84 4 66-9 55-30l1 105H24l-1-265h31l2 30c10-21 28-34 59-34zm-8 174c40 0 45-34 45-75s-6-73-45-74c-42 0-51 32-51 76 0 43 10 73 51 73" id="A"/><path fill="#fff" d="M141-36C126-15 110 5 73 4 37 3 15-17 15-53c-1-64 63-63 125-63 3-35-9-54-41-54-24 1-41 7-42 31l-33-3c5-37 33-52 76-52 45 0 72 20 72 64v82c-1 20 7 32 28 27v20c-31 9-61-2-59-35zM48-53c0 20 12 33 32 33 41-3 63-29 60-74-43 2-92-5-92 41" id="B"/><path fill="#fff" d="M59-47c-2 24 18 29 38 22v24C64 9 27 4 27-40v-127H5v-23h24l9-43h21v43h35v23H59v120" id="C"/><path fill="#fff" d="M106-169C34-169 62-67 57 0H25v-261h32l-1 103c12-21 28-36 61-36 89 0 53 116 60 194h-32v-121c2-32-8-49-39-48" id="D"/><g id="a"><use transform="matrix(0.05,0,0,0.05,0,0)" xlink:href="#A"/><use transform="matrix(0.05,0,0,0.05,10,0)" xlink:href="#B"/><use transform="matrix(0.05,0,0,0.05,20,0)" xlink:href="#C"/><use transform="matrix(0.05,0,0,0.05,25,0)" xlink:href="#D"/></g><path fill="#fff" d="M24 0v-248h52v208h133V0H24" id="E"/><path fill="#fff" d="M24 0v-54h51V0H24" id="F"/><path fill="#fff" d="M190-63c-7 42-38 67-86 67-59 0-84-38-90-98-12-110 154-137 174-36l-49 2c-2-19-15-32-35-32-30 0-35 28-38 64-6 74 65 87 74 30" id="G"/><path fill="#fff" d="M110-194c64 0 96 36 96 99 0 64-35 99-97 99-61 0-95-36-95-99 0-62 34-99 96-99zm-1 164c35 0 45-28 45-65 0-40-10-65-43-65-34 0-45 26-45 65 0 36 10 65 43 65" id="H"/><path fill="#fff" d="M135-194c87-1 58 113 63 194h-50c-7-57 23-157-34-157-59 0-34 97-39 157H25l-1-190h47c2 12-1 28 3 38 12-26 28-41 61-42" id="I"/><path fill="#fff" d="M115-3C79 11 28 4 28-45v-112H4v-33h27l15-45h31v45h36v33H77v99c-1 23 16 31 38 25v30" id="J"/><path fill="#fff" d="M135-150c-39-12-60 13-60 57V0H25l-1-190h47c2 13-1 29 3 40 6-28 27-53 61-41v41" id="K"/><path fill="#fff" d="M25 0v-261h50V0H25" id="L"/><g id="b"><use transform="matrix(0.06172839506172839,0,0,0.06172839506172839,0,0)" xlink:href="#E"/><use transform="matrix(0.06172839506172839,0,0,0.06172839506172839,13.518518518518517,0)" xlink:href="#F"/><use transform="matrix(0.06172839506172839,0,0,0.06172839506172839,19.691358024691358,0)" xlink:href="#G"/><use transform="matrix(0.06172839506172839,0,0,0.06172839506172839,32.03703703703704,0)" xlink:href="#H"/><use transform="matrix(0.06172839506172839,0,0,0.06172839506172839,45.55555555555556,0)" xlink:href="#I"/><use transform="matrix(0.06172839506172839,0,0,0.06172839506172839,59.074074074074076,0)" xlink:href="#J"/><use transform="matrix(0.06172839506172839,0,0,0.06172839506172839,66.41975308641976,0)" xlink:href="#K"/><use transform="matrix(0.06172839506172839,0,0,0.06172839506172839,75.06172839506173,0)" xlink:href="#H"/><use transform="matrix(0.06172839506172839,0,0,0.06172839506172839,88.58024691358025,0)" xlink:href="#L"/></g><path fill="#fff" d="M24-248c120-7 223 5 221 122C244-46 201 0 124 0H24v-248zM76-40c74 7 117-18 117-86 0-67-45-88-117-82v168" id="M"/><path fill="#fff" d="M220-157c-53 9-28 100-34 157h-49v-107c1-27-5-49-29-50C55-147 81-57 75 0H25l-1-190h47c2 12-1 28 3 38 10-53 101-56 108 0 13-22 24-43 59-42 82 1 51 116 57 194h-49v-107c-1-25-5-48-29-50" id="N"/><path fill="#fff" d="M238-95c0 69-44 99-111 99C63 4 22-25 22-93v-155h51v151c-1 38 19 59 55 60 90 1 49-130 58-211h52v153" id="O"/><path fill="#fff" d="M25-224v-37h50v37H25zM25 0v-190h50V0H25" id="P"/><g id="c"><use transform="matrix(0.06172839506172839,0,0,0.06172839506172839,0,0)" xlink:href="#E"/><use transform="matrix(0.06172839506172839,0,0,0.06172839506172839,13.518518518518517,0)" xlink:href="#F"/><use transform="matrix(0.06172839506172839,0,0,0.06172839506172839,19.691358024691358,0)" xlink:href="#M"/><use transform="matrix(0.06172839506172839,0,0,0.06172839506172839,35.67901234567901,0)" xlink:href="#H"/><use transform="matrix(0.06172839506172839,0,0,0.06172839506172839,49.19753086419753,0)" xlink:href="#N"/><use transform="matrix(0.06172839506172839,0,0,0.06172839506172839,68.95061728395062,0)" xlink:href="#O"/><use transform="matrix(0.06172839506172839,0,0,0.06172839506172839,84.93827160493828,0)" xlink:href="#J"/><use transform="matrix(0.06172839506172839,0,0,0.06172839506172839,92.28395061728396,0)" xlink:href="#P"/><use transform="matrix(0.06172839506172839,0,0,0.06172839506172839,98.4567901234568,0)" xlink:href="#L"/></g><path fill="#ffdf71" d="M24-248c120-7 223 5 221 122C244-46 201 0 124 0H24v-248zM76-40c74 7 117-18 117-86 0-67-45-88-117-82v168" id="Q"/><path fill="#ffdf71" d="M140-251c80 0 125 45 125 126S219 4 139 4C58 4 15-44 15-125s44-126 125-126zm-1 214c52 0 73-35 73-88 0-50-21-86-72-86-52 0-73 35-73 86s22 88 72 88" id="R"/><path fill="#ffdf71" d="M230 0l2-204L168 0h-37L68-204 70 0H24v-248h70l56 185 57-185h69V0h-46" id="S"/><g id="d"><use transform="matrix(0.06172839506172839,0,0,0.06172839506172839,0,0)" xlink:href="#Q"/><use transform="matrix(0.06172839506172839,0,0,0.06172839506172839,15.987654320987653,0)" xlink:href="#R"/><use transform="matrix(0.06172839506172839,0,0,0.06172839506172839,33.2716049382716,0)" xlink:href="#S"/></g><path fill="#ffdf71" d="M85-194c31 0 48 13 60 33l-1-100h32l1 261h-30c-2-10 0-23-3-31C134-8 116 4 85 4 32 4 16-35 15-94c0-66 23-100 70-100zm9 24c-40 0-46 34-46 75 0 40 6 74 45 74 42 0 51-32 51-76 0-42-9-74-50-73" id="T"/><path fill="#ffdf71" d="M24-231v-30h32v30H24zM24 0v-190h32V0H24" id="U"/><path fill="#ffdf71" d="M108 0H70L1-190h34L89-25l56-165h34" id="V"/><path fill="#ffdf71" d="M33 0v-38h34V0H33" id="W"/><path fill="#ffdf71" d="M117-194c89-4 53 116 60 194h-32v-121c0-31-8-49-39-48C34-167 62-67 57 0H25l-1-190h30c1 10-1 24 2 32 11-22 29-35 61-36" id="X"/><path fill="#ffdf71" d="M100-194c63 0 86 42 84 106H49c0 40 14 67 53 68 26 1 43-12 49-29l28 8c-11 28-37 45-77 45C44 4 14-33 15-96c1-61 26-98 85-98zm52 81c6-60-76-77-97-28-3 7-6 17-6 28h103" id="Y"/><path fill="#ffdf71" d="M114-163C36-179 61-72 57 0H25l-1-190h30c1 12-1 29 2 39 6-27 23-49 58-41v29" id="Z"/><path fill="#ffdf71" d="M197 0v-115H63V0H30v-248h33v105h134v-105h34V0h-34" id="aa"/><path fill="#ffdf71" d="M127-220V0H93v-220H8v-28h204v28h-85" id="ab"/><path fill="#ffdf71" d="M240 0l2-218c-23 76-54 145-80 218h-23L58-218 59 0H30v-248h44l77 211c21-75 51-140 76-211h43V0h-30" id="ac"/><path fill="#ffdf71" d="M30 0v-248h33v221h125V0H30" id="ad"/><g id="e"><use transform="matrix(0.06172839506172839,0,0,0.06172839506172839,0,0)" xlink:href="#T"/><use transform="matrix(0.06172839506172839,0,0,0.06172839506172839,12.345679012345679,0)" xlink:href="#U"/><use transform="matrix(0.06172839506172839,0,0,0.06172839506172839,17.22222222222222,0)" xlink:href="#V"/><use transform="matrix(0.06172839506172839,0,0,0.06172839506172839,26.666666666666664,0)" xlink:href="#W"/><use transform="matrix(0.06172839506172839,0,0,0.06172839506172839,32.839506172839506,0)" xlink:href="#U"/><use transform="matrix(0.06172839506172839,0,0,0.06172839506172839,37.71604938271605,0)" xlink:href="#X"/><use transform="matrix(0.06172839506172839,0,0,0.06172839506172839,50.06172839506173,0)" xlink:href="#X"/><use transform="matrix(0.06172839506172839,0,0,0.06172839506172839,62.407407407407405,0)" xlink:href="#Y"/><use transform="matrix(0.06172839506172839,0,0,0.06172839506172839,74.75308641975309,0)" xlink:href="#Z"/><use transform="matrix(0.06172839506172839,0,0,0.06172839506172839,82.09876543209877,0)" xlink:href="#aa"/><use transform="matrix(0.06172839506172839,0,0,0.06172839506172839,98.08641975308643,0)" xlink:href="#ab"/><use transform="matrix(0.06172839506172839,0,0,0.06172839506172839,111.60493827160495,0)" xlink:href="#ac"/><use transform="matrix(0.06172839506172839,0,0,0.06172839506172839,130.06172839506175,0)" xlink:href="#ad"/></g><path fill="#ffdf71" d="M133-34C117-15 103 5 69 4 32 3 11-16 11-54c-1-60 55-63 116-61 1-26-3-47-28-47-18 1-26 9-28 27l-52-2c7-38 36-58 82-57s74 22 75 68l1 82c-1 14 12 18 25 15v27c-30 8-71 5-69-32zm-48 3c29 0 43-24 42-57-32 0-66-3-65 30 0 17 8 27 23 27" id="ae"/><path fill="#ffdf71" d="M88-194c31-1 46 15 58 34l-1-101h50l1 261h-48c-2-10 0-23-3-31C134-8 116 4 84 4 32 4 16-41 15-95c0-56 19-97 73-99zm17 164c33 0 40-30 41-66 1-37-9-64-41-64s-38 30-39 65c0 43 13 65 39 65" id="af"/><path fill="#ffdf71" d="M136-208V0H84v-208H4v-40h212v40h-80" id="ag"/><path fill="#ffdf71" d="M110-194c64 0 96 36 96 99 0 64-35 99-97 99-61 0-95-36-95-99 0-62 34-99 96-99zm-1 164c35 0 45-28 45-65 0-40-10-65-43-65-34 0-45 26-45 65 0 36 10 65 43 65" id="ah"/><g id="f"><use transform="matrix(0.06172839506172839,0,0,0.06172839506172839,0,0)" xlink:href="#ae"/><use transform="matrix(0.06172839506172839,0,0,0.06172839506172839,12.345679012345679,0)" xlink:href="#af"/><use transform="matrix(0.06172839506172839,0,0,0.06172839506172839,25.864197530864196,0)" xlink:href="#af"/><use transform="matrix(0.06172839506172839,0,0,0.06172839506172839,39.382716049382715,0)" xlink:href="#ag"/><use transform="matrix(0.06172839506172839,0,0,0.06172839506172839,51.23456790123457,0)" xlink:href="#ah"/></g><path fill="#fff" d="M96-169c-40 0-48 33-48 73s9 75 48 75c24 0 41-14 43-38l32 2c-6 37-31 61-74 61-59 0-76-41-82-99-10-93 101-131 147-64 4 7 5 14 7 22l-32 3c-4-21-16-35-41-35" id="ai"/><path fill="#fff" d="M114-163C36-179 61-72 57 0H25l-1-190h30c1 12-1 29 2 39 6-27 23-49 58-41v29" id="aj"/><path fill="#fff" d="M100-194c63 0 86 42 84 106H49c0 40 14 67 53 68 26 1 43-12 49-29l28 8c-11 28-37 45-77 45C44 4 14-33 15-96c1-61 26-98 85-98zm52 81c6-60-76-77-97-28-3 7-6 17-6 28h103" id="ak"/><g id="g"><use transform="matrix(0.05,0,0,0.05,0,0)" xlink:href="#ai"/><use transform="matrix(0.05,0,0,0.05,9,0)" xlink:href="#aj"/><use transform="matrix(0.05,0,0,0.05,14.949999999999998,0)" xlink:href="#ak"/><use transform="matrix(0.05,0,0,0.05,24.95,0)" xlink:href="#B"/><use transform="matrix(0.05,0,0,0.05,34.95,0)" xlink:href="#C"/><use transform="matrix(0.05,0,0,0.05,39.95,0)" xlink:href="#ak"/></g><path fill="#fff" d="M195-6C206 82 75 100 31 46c-4-6-6-13-8-21l49-6c3 16 16 24 34 25 40 0 42-37 40-79-11 22-30 35-61 35-53 0-70-43-70-97 0-56 18-96 73-97 30 0 46 14 59 34l2-30h47zm-90-29c32 0 41-27 41-63 0-35-9-62-40-62-32 0-39 29-40 63 0 36 9 62 39 62" id="al"/><path fill="#fff" d="M185-48c-13 30-37 53-82 52C43 2 14-33 14-96s30-98 90-98c62 0 83 45 84 108H66c0 31 8 55 39 56 18 0 30-7 34-22zm-45-69c5-46-57-63-70-21-2 6-4 13-4 21h74" id="am"/><path fill="#fff" d="M176-78C186 10 51 31 16-35c-5-9-9-19-11-32l52-8c4 21 12 37 35 38 23 0 32-16 32-40v-130H75v-41h101v170" id="an"/><path fill="#fff" d="M137-138c1-29-70-34-71-4 15 46 118 7 119 86 1 83-164 76-172 9l43-7c4 19 20 25 44 25 33 8 57-30 24-41C81-84 22-81 20-136c-2-80 154-74 161-7" id="ao"/><g id="h"><use transform="matrix(0.06172839506172839,0,0,0.06172839506172839,0,0)" xlink:href="#E"/><use transform="matrix(0.06172839506172839,0,0,0.06172839506172839,13.518518518518517,0)" xlink:href="#F"/><use transform="matrix(0.06172839506172839,0,0,0.06172839506172839,19.691358024691358,0)" xlink:href="#al"/><use transform="matrix(0.06172839506172839,0,0,0.06172839506172839,33.20987654320987,0)" xlink:href="#am"/><use transform="matrix(0.06172839506172839,0,0,0.06172839506172839,45.55555555555555,0)" xlink:href="#H"/><use transform="matrix(0.06172839506172839,0,0,0.06172839506172839,59.07407407407407,0)" xlink:href="#an"/><use transform="matrix(0.06172839506172839,0,0,0.06172839506172839,71.41975308641975,0)" xlink:href="#ao"/><use transform="matrix(0.06172839506172839,0,0,0.06172839506172839,83.76543209876543,0)" xlink:href="#H"/><use transform="matrix(0.06172839506172839,0,0,0.06172839506172839,97.28395061728395,0)" xlink:href="#I"/></g><path fill="#fff" d="M169-182c-1-43-94-46-97-3 18 66 151 10 154 114 3 95-165 93-204 36-6-8-10-19-12-30l50-8c3 46 112 56 116 5-17-69-150-10-154-114-4-87 153-88 188-35 5 8 8 18 10 28" id="ap"/><path fill="#fff" d="M140-251c80 0 125 45 125 126S219 4 139 4C58 4 15-44 15-125s44-126 125-126zm-1 214c52 0 73-35 73-88 0-50-21-86-72-86-52 0-73 35-73 86s22 88 72 88" id="aq"/><path fill="#fff" d="M175 0L67-191c6 58 2 128 3 191H24v-248h59L193-55c-6-58-2-129-3-193h46V0h-61" id="ar"/><g id="i"><use transform="matrix(0.06172839506172839,0,0,0.06172839506172839,0,0)" xlink:href="#an"/><use transform="matrix(0.06172839506172839,0,0,0.06172839506172839,12.345679012345679,0)" xlink:href="#ap"/><use transform="matrix(0.06172839506172839,0,0,0.06172839506172839,27.160493827160494,0)" xlink:href="#aq"/><use transform="matrix(0.06172839506172839,0,0,0.06172839506172839,44.44444444444444,0)" xlink:href="#ar"/></g><path fill="#fff" d="M133-34C117-15 103 5 69 4 32 3 11-16 11-54c-1-60 55-63 116-61 1-26-3-47-28-47-18 1-26 9-28 27l-52-2c7-38 36-58 82-57s74 22 75 68l1 82c-1 14 12 18 25 15v27c-30 8-71 5-69-32zm-48 3c29 0 43-24 42-57-32 0-66-3-65 30 0 17 8 27 23 27" id="as"/><g id="j"><use transform="matrix(0.06172839506172839,0,0,0.06172839506172839,0,0)" xlink:href="#M"/><use transform="matrix(0.06172839506172839,0,0,0.06172839506172839,15.987654320987653,0)" xlink:href="#as"/><use transform="matrix(0.06172839506172839,0,0,0.06172839506172839,28.333333333333332,0)" xlink:href="#J"/><use transform="matrix(0.06172839506172839,0,0,0.06172839506172839,35.67901234567901,0)" xlink:href="#as"/></g><path fill="#fff" d="M123 10C108 53 80 86 19 72V37c35 8 53-11 59-39L3-190h52l48 148c12-52 28-100 44-148h51" id="at"/><path fill="#fff" d="M35-132v-50h50v50H35zM35 0v-49h50V0H35" id="au"/><g id="k"><use transform="matrix(0.06172839506172839,0,0,0.06172839506172839,0,0)" xlink:href="#ao"/><use transform="matrix(0.06172839506172839,0,0,0.06172839506172839,12.345679012345679,0)" xlink:href="#J"/><use transform="matrix(0.06172839506172839,0,0,0.06172839506172839,19.691358024691358,0)" xlink:href="#at"/><use transform="matrix(0.06172839506172839,0,0,0.06172839506172839,32.03703703703704,0)" xlink:href="#L"/><use transform="matrix(0.06172839506172839,0,0,0.06172839506172839,38.20987654320988,0)" xlink:href="#am"/><use transform="matrix(0.06172839506172839,0,0,0.06172839506172839,50.55555555555556,0)" xlink:href="#au"/></g><path fill="#fff" d="M24 0v-248h195v40H76v63h132v40H76v65h150V0H24" id="av"/><path fill="#fff" d="M114-157C55-157 80-60 75 0H25v-261h50l-1 109c12-26 28-41 61-42 86-1 58 113 63 194h-50c-7-57 23-157-34-157" id="aw"/><path fill="#fff" d="M76-208v77h127v40H76V0H24v-248h183v40H76" id="ax"/><path fill="#fff" d="M85 4C-2 5 27-109 22-190h50c7 57-23 150 33 157 60-5 35-97 40-157h50l1 190h-47c-2-12 1-28-3-38-12 25-28 42-61 42" id="ay"/><g id="l"><use transform="matrix(0.06172839506172839,0,0,0.06172839506172839,0,0)" xlink:href="#H"/><use transform="matrix(0.06172839506172839,0,0,0.06172839506172839,13.518518518518517,0)" xlink:href="#I"/><use transform="matrix(0.06172839506172839,0,0,0.06172839506172839,27.037037037037035,0)" xlink:href="#av"/><use transform="matrix(0.06172839506172839,0,0,0.06172839506172839,41.85185185185185,0)" xlink:href="#as"/><use transform="matrix(0.06172839506172839,0,0,0.06172839506172839,54.197530864197525,0)" xlink:href="#G"/><use transform="matrix(0.06172839506172839,0,0,0.06172839506172839,66.5432098765432,0)" xlink:href="#aw"/><use transform="matrix(0.06172839506172839,0,0,0.06172839506172839,80.06172839506172,0)" xlink:href="#ax"/><use transform="matrix(0.06172839506172839,0,0,0.06172839506172839,93.58024691358024,0)" xlink:href="#am"/><use transform="matrix(0.06172839506172839,0,0,0.06172839506172839,105.92592592592592,0)" xlink:href="#as"/><use transform="matrix(0.06172839506172839,0,0,0.06172839506172839,118.27160493827161,0)" xlink:href="#J"/><use transform="matrix(0.06172839506172839,0,0,0.06172839506172839,125.61728395061729,0)" xlink:href="#ay"/><use transform="matrix(0.06172839506172839,0,0,0.06172839506172839,139.1358024691358,0)" xlink:href="#K"/><use transform="matrix(0.06172839506172839,0,0,0.06172839506172839,147.77777777777777,0)" xlink:href="#am"/><use transform="matrix(0.06172839506172839,0,0,0.06172839506172839,160.12345679012344,0)" xlink:href="#au"/></g><path fill="#fff" d="M67-93c0 74 22 123 53 168H70C40 30 18-18 18-93s22-123 52-168h50c-32 44-53 94-53 168" id="az"/><path fill="#fff" d="M144 0l-44-69L55 0H2l70-98-66-92h53l41 62 40-62h54l-67 91 71 99h-54" id="aA"/><path fill="#fff" d="M76-54c-1 42 2 86-19 110H24C36 42 46 24 48 0H25v-54h51" id="aB"/><path fill="#fff" d="M102-93c0 74-22 123-52 168H0C30 29 54-18 53-93c0-74-22-123-53-168h50c30 45 52 94 52 168" id="aC"/><g id="m"><use transform="matrix(0.06172839506172839,0,0,0.06172839506172839,0,0)" xlink:href="#E"/><use transform="matrix(0.06172839506172839,0,0,0.06172839506172839,13.518518518518517,0)" xlink:href="#al"/><use transform="matrix(0.06172839506172839,0,0,0.06172839506172839,27.037037037037035,0)" xlink:href="#an"/><use transform="matrix(0.06172839506172839,0,0,0.06172839506172839,39.382716049382715,0)" xlink:href="#az"/><use transform="matrix(0.06172839506172839,0,0,0.06172839506172839,46.72839506172839,0)" xlink:href="#aA"/><use transform="matrix(0.06172839506172839,0,0,0.06172839506172839,59.07407407407407,0)" xlink:href="#aB"/><use transform="matrix(0.06172839506172839,0,0,0.06172839506172839,65.24691358024691,0)" xlink:href="#at"/><use transform="matrix(0.06172839506172839,0,0,0.06172839506172839,77.5925925925926,0)" xlink:href="#aC"/></g><path fill="#fff" d="M133 41v34c-50 4-88-6-87-53 0-46 9-101-40-98v-34c48 2 40-52 40-98-1-47 37-57 87-53v34c-79-14-6 124-77 134 73 11-4 147 77 134" id="aD"/><g id="n"><use transform="matrix(0.06172839506172839,0,0,0.06172839506172839,0,0)" xlink:href="#aD"/><use transform="matrix(0.06172839506172839,0,0,0.06172839506172839,8.641975308641975,0)" xlink:href="#F"/><use transform="matrix(0.06172839506172839,0,0,0.06172839506172839,14.814814814814813,0)" xlink:href="#F"/><use transform="matrix(0.06172839506172839,0,0,0.06172839506172839,20.98765432098765,0)" xlink:href="#F"/></g><path fill="#ffdf71" d="M220-157c-53 9-28 100-34 157h-49v-107c1-27-5-49-29-50C55-147 81-57 75 0H25l-1-190h47c2 12-1 28 3 38 10-53 101-56 108 0 13-22 24-43 59-42 82 1 51 116 57 194h-49v-107c-1-25-5-48-29-50" id="aE"/><path fill="#ffdf71" d="M85 4C-2 5 27-109 22-190h50c7 57-23 150 33 157 60-5 35-97 40-157h50l1 190h-47c-2-12 1-28-3-38-12 25-28 42-61 42" id="aF"/><path fill="#ffdf71" d="M137-138c1-29-70-34-71-4 15 46 118 7 119 86 1 83-164 76-172 9l43-7c4 19 20 25 44 25 33 8 57-30 24-41C81-84 22-81 20-136c-2-80 154-74 161-7" id="aG"/><path fill="#ffdf71" d="M185-48c-13 30-37 53-82 52C43 2 14-33 14-96s30-98 90-98c62 0 83 45 84 108H66c0 31 8 55 39 56 18 0 30-7 34-22zm-45-69c5-46-57-63-70-21-2 6-4 13-4 21h74" id="aH"/><path fill="#ffdf71" d="M128 0H69L1-190h53L99-40l48-150h52" id="aI"/><path fill="#ffdf71" d="M135-150c-39-12-60 13-60 57V0H25l-1-190h47c2 13-1 29 3 40 6-28 27-53 61-41v41" id="aJ"/><path fill="#ffdf71" d="M35-132v-50h50v50H35zM35 0v-49h50V0H35" id="aK"/><g id="o"><use transform="matrix(0.06172839506172839,0,0,0.06172839506172839,0,0)" xlink:href="#aE"/><use transform="matrix(0.06172839506172839,0,0,0.06172839506172839,19.753086419753085,0)" xlink:href="#ah"/><use transform="matrix(0.06172839506172839,0,0,0.06172839506172839,33.2716049382716,0)" xlink:href="#aF"/><use transform="matrix(0.06172839506172839,0,0,0.06172839506172839,46.79012345679012,0)" xlink:href="#aG"/><use transform="matrix(0.06172839506172839,0,0,0.06172839506172839,59.1358024691358,0)" xlink:href="#aH"/><use transform="matrix(0.06172839506172839,0,0,0.06172839506172839,71.48148148148148,0)" xlink:href="#ah"/><use transform="matrix(0.06172839506172839,0,0,0.06172839506172839,85,0)" xlink:href="#aI"/><use transform="matrix(0.06172839506172839,0,0,0.06172839506172839,97.34567901234568,0)" xlink:href="#aH"/><use transform="matrix(0.06172839506172839,0,0,0.06172839506172839,109.69135802469137,0)" xlink:href="#aJ"/><use transform="matrix(0.06172839506172839,0,0,0.06172839506172839,118.33333333333334,0)" xlink:href="#aK"/></g><path fill="#ffdf71" d="M115-3C79 11 28 4 28-45v-112H4v-33h27l15-45h31v45h36v33H77v99c-1 23 16 31 38 25v30" id="aL"/><g id="p"><use transform="matrix(0.06172839506172839,0,0,0.06172839506172839,0,0)" xlink:href="#aE"/><use transform="matrix(0.06172839506172839,0,0,0.06172839506172839,19.753086419753085,0)" xlink:href="#ah"/><use transform="matrix(0.06172839506172839,0,0,0.06172839506172839,33.2716049382716,0)" xlink:href="#aF"/><use transform="matrix(0.06172839506172839,0,0,0.06172839506172839,46.79012345679012,0)" xlink:href="#aG"/><use transform="matrix(0.06172839506172839,0,0,0.06172839506172839,59.1358024691358,0)" xlink:href="#aH"/><use transform="matrix(0.06172839506172839,0,0,0.06172839506172839,71.48148148148148,0)" xlink:href="#ah"/><use transform="matrix(0.06172839506172839,0,0,0.06172839506172839,85,0)" xlink:href="#aF"/><use transform="matrix(0.06172839506172839,0,0,0.06172839506172839,98.51851851851852,0)" xlink:href="#aL"/><use transform="matrix(0.06172839506172839,0,0,0.06172839506172839,105.8641975308642,0)" xlink:href="#aK"/></g><path fill="#ffdf71" d="M190-63c-7 42-38 67-86 67-59 0-84-38-90-98-12-110 154-137 174-36l-49 2c-2-19-15-32-35-32-30 0-35 28-38 64-6 74 65 87 74 30" id="aM"/><path fill="#ffdf71" d="M25 0v-261h50V0H25" id="aN"/><path fill="#ffdf71" d="M25-224v-37h50v37H25zM25 0v-190h50V0H25" id="aO"/><path fill="#ffdf71" d="M147 0L96-86 75-71V0H25v-261h50v150l67-79h53l-66 74L201 0h-54" id="aP"/><g id="q"><use transform="matrix(0.06172839506172839,0,0,0.06172839506172839,0,0)" xlink:href="#aM"/><use transform="matrix(0.06172839506172839,0,0,0.06172839506172839,12.345679012345679,0)" xlink:href="#aN"/><use transform="matrix(0.06172839506172839,0,0,0.06172839506172839,18.51851851851852,0)" xlink:href="#aO"/><use transform="matrix(0.06172839506172839,0,0,0.06172839506172839,24.691358024691358,0)" xlink:href="#aM"/><use transform="matrix(0.06172839506172839,0,0,0.06172839506172839,37.03703703703704,0)" xlink:href="#aP"/><use transform="matrix(0.06172839506172839,0,0,0.06172839506172839,49.382716049382715,0)" xlink:href="#aK"/></g><path fill="#fff" d="M84 4C-5 8 30-112 23-190h32v120c0 31 7 50 39 49 72-2 45-101 50-169h31l1 190h-30c-1-10 1-25-2-33-11 22-28 36-60 37" id="aQ"/><path fill="#fff" d="M85-194c31 0 48 13 60 33l-1-100h32l1 261h-30c-2-10 0-23-3-31C134-8 116 4 85 4 32 4 16-35 15-94c0-66 23-100 70-100zm9 24c-40 0-46 34-46 75 0 40 6 74 45 74 42 0 51-32 51-76 0-42-9-74-50-73" id="aR"/><g id="s"><use transform="matrix(0.05,0,0,0.05,0,0)" xlink:href="#aQ"/><use transform="matrix(0.05,0,0,0.05,10,0)" xlink:href="#A"/><use transform="matrix(0.05,0,0,0.05,20,0)" xlink:href="#aR"/><use transform="matrix(0.05,0,0,0.05,30,0)" xlink:href="#B"/><use transform="matrix(0.05,0,0,0.05,40,0)" xlink:href="#C"/><use transform="matrix(0.05,0,0,0.05,45,0)" xlink:href="#ak"/></g><path fill="#fff" d="M87 75C49 33 22-17 22-94c0-76 28-126 65-167h31c-38 41-64 92-64 168S80 34 118 75H87" id="aS"/><path fill="#fff" d="M100-194c62-1 85 37 85 99 1 63-27 99-86 99S16-35 15-95c0-66 28-99 85-99zM99-20c44 1 53-31 53-75 0-43-8-75-51-75s-53 32-53 75 10 74 51 75" id="aT"/><path fill="#fff" d="M135-143c-3-34-86-38-87 0 15 53 115 12 119 90S17 21 10-45l28-5c4 36 97 45 98 0-10-56-113-15-118-90-4-57 82-63 122-42 12 7 21 19 24 35" id="aU"/><path fill="#fff" d="M33-261c38 41 65 92 65 168S71 34 33 75H2C39 34 66-17 66-93S39-220 2-261h31" id="aV"/><g id="t"><use transform="matrix(0.05,0,0,0.05,0,0)" xlink:href="#aS"/><use transform="matrix(0.05,0,0,0.05,5.95,0)" xlink:href="#A"/><use transform="matrix(0.05,0,0,0.05,15.949999999999998,0)" xlink:href="#aj"/><use transform="matrix(0.05,0,0,0.05,21.9,0)" xlink:href="#aT"/><use transform="matrix(0.05,0,0,0.05,31.899999999999995,0)" xlink:href="#A"/><use transform="matrix(0.05,0,0,0.05,41.9,0)" xlink:href="#aU"/><use transform="matrix(0.05,0,0,0.05,50.9,0)" xlink:href="#aV"/></g><path fill="#fff" d="M88-194c31-1 46 15 58 34l-1-101h50l1 261h-48c-2-10 0-23-3-31C134-8 116 4 84 4 32 4 16-41 15-95c0-56 19-97 73-99zm17 164c33 0 40-30 41-66 1-37-9-64-41-64s-38 30-39 65c0 43 13 65 39 65" id="aW"/><use transform="matrix(0.05,0,0,0.05,0,0)" xlink:href="#aW" id="u"/><path fill="#fff" d="M15-22v-40l146-57-146-57v-40l181 69v56" id="aX"/><use transform="matrix(0.05,0,0,0.05,0,0)" xlink:href="#aX" id="v"/><use transform="matrix(0.05,0,0,0.05,0,0)" xlink:href="#I" id="w"/><path fill="#fff" d="M110-251c83-7 118 89 53 130-17 10-36 21-38 46H78c2-56 65-53 71-103 2-21-15-35-38-34-25 1-41 14-44 38l-50-2c6-48 39-70 93-75zM77 0v-47h51V0H77" id="aY"/><use transform="matrix(0.05,0,0,0.05,0,0)" xlink:href="#aY" id="x"/><path fill="#fff" d="M67-125c0 53 21 87 73 88 37 1 54-22 65-47l45 17C233-25 199 4 140 4 58 4 20-42 15-125 8-235 124-281 211-232c18 10 29 29 36 50l-46 12c-8-25-30-41-62-41-52 0-71 34-72 86" id="aZ"/><g id="y"><use transform="matrix(0.05,0,0,0.05,0,0)" xlink:href="#al"/><use transform="matrix(0.05,0,0,0.05,10.950000000000001,0)" xlink:href="#am"/><use transform="matrix(0.05,0,0,0.05,20.950000000000003,0)" xlink:href="#J"/><use transform="matrix(0.05,0,0,0.05,26.900000000000002,0)" xlink:href="#aZ"/><use transform="matrix(0.05,0,0,0.05,39.85,0)" xlink:href="#H"/><use transform="matrix(0.05,0,0,0.05,50.800000000000004,0)" xlink:href="#L"/><use transform="matrix(0.05,0,0,0.05,55.800000000000004,0)" xlink:href="#H"/><use transform="matrix(0.05,0,0,0.05,66.75,0)" xlink:href="#K"/></g><path fill="#fff" d="M33 0v-38h34V0H33" id="ba"/><path fill="#fff" d="M117-194c89-4 53 116 60 194h-32v-121c0-31-8-49-39-48C34-167 62-67 57 0H25l-1-190h30c1 10-1 24 2 32 11-22 29-35 61-36" id="bb"/><path fill="#fff" d="M108 0H70L1-190h34L89-25l56-165h34" id="bc"/><g id="z"><use transform="matrix(0.05,0,0,0.05,0,0)" xlink:href="#ba"/><use transform="matrix(0.05,0,0,0.05,5,0)" xlink:href="#aT"/><use transform="matrix(0.05,0,0,0.05,15,0)" xlink:href="#bb"/><use transform="matrix(0.05,0,0,0.05,25,0)" xlink:href="#aS"/><use transform="matrix(0.05,0,0,0.05,30.950000000000003,0)" xlink:href="#ak"/><use transform="matrix(0.05,0,0,0.05,40.95,0)" xlink:href="#bc"/><use transform="matrix(0.05,0,0,0.05,49.95,0)" xlink:href="#ak"/><use transform="matrix(0.05,0,0,0.05,59.95,0)" xlink:href="#bb"/><use transform="matrix(0.05,0,0,0.05,69.95,0)" xlink:href="#C"/><use transform="matrix(0.05,0,0,0.05,74.95,0)" xlink:href="#aV"/></g></defs></g></svg>