<svg xmlns="http://www.w3.org/2000/svg" xmlns:xlink="http://www.w3.org/1999/xlink" xmlns:lucid="lucid" width="800" height="345"><g transform="translate(-349.5757575757574 -155.25757575757575)" lucid:page-tab-id="xO7Mt-~bHozS"><path d="M729.58 175.26h80v232h-80z" fill="#666"/><path d="M729.58 175.26h80v40h-80z" fill="#525252"/><path d="M729.58 175.26h80v232h-80zM729.58 215.26h80" stroke="#cacaca" stroke-width="2" fill="none"/><use xlink:href="#a" transform="matrix(1,0,0,1,739.5757575757574,175.25757575757575) translate(8.099999999999998 23.6)"/><use xlink:href="#b" transform="matrix(1,0,0,1,734.5757575757574,217.75757575757575) translate(26.025 17.1)"/><use xlink:href="#c" transform="matrix(1,0,0,1,734.5757575757574,249.75757575757575) translate(12.524999999999999 17.1)"/><use xlink:href="#d" transform="matrix(1,0,0,1,734.5757575757574,281.75757575757575) translate(20.525 17.1)"/><use xlink:href="#e" transform="matrix(1,0,0,1,734.5757575757574,313.75757575757575) translate(19.025 17.1)"/><use xlink:href="#f" transform="matrix(1,0,0,1,734.5757575757574,345.75757575757575) translate(23.525 17.1)"/><use xlink:href="#g" transform="matrix(1,0,0,1,734.5757575757574,377.75757575757575) translate(11.524999999999999 17.1)"/><path d="M809.58 391.26h60v10h60" stroke="#d8d8d8" stroke-width="2" fill="none"/><path fill="#fff"/><path d="M830.58 401.26h-2v-20h2zM929.58 391.26v1.12l-17.77 8.88 17.78 8.88v1.12l-.45.9-21.8-10.9 21.8-10.9z" fill="#d8d8d8"/><path d="M929.58 345.26h200v104h-200z" fill="#666"/><path d="M929.58 345.26h200v40h-200z" fill="#525252"/><path d="M929.58 345.26h200v104h-200zM929.58 385.26h200M989.58 385.26v64" stroke="#cacaca" stroke-width="2" fill="none"/><use xlink:href="#h" transform="matrix(1,0,0,1,939.5757575757574,345.25757575757575) translate(66.55 23.6)"/><use xlink:href="#i" transform="matrix(1,0,0,1,934.5757575757574,387.75757575757575) translate(7.5 17.1)"/><use xlink:href="#j" transform="matrix(1,0,0,1,994.5757575757574,387.75757575757575) translate(0 17.1)"/><use xlink:href="#k" transform="matrix(1,0,0,1,934.5757575757574,419.75757575757575) translate(2.0249999999999986 17.1)"/><use xlink:href="#l" transform="matrix(1,0,0,1,994.5757575757574,419.75757575757575) translate(0 17.1)"/><path d="M369.58 345.26h240v104h-240z" fill="#666"/><path d="M369.58 345.26h240v40h-240z" fill="#525252"/><path d="M369.58 345.26h240v104h-240zM369.58 385.26h240M460.8 385.26v64" stroke="#cacaca" stroke-width="2" fill="none"/><use xlink:href="#k" transform="matrix(1,0,0,1,379.5757575757574,345.25757575757575) translate(87.025 23.6)"/><use xlink:href="#m" transform="matrix(1,0,0,1,374.5757575757574,387.75757575757575) translate(8.625 17.1)"/><use xlink:href="#n" transform="matrix(1,0,0,1,465.79125343031035,387.75757575757575) translate(0 17.1)"/><use xlink:href="#o" transform="matrix(1,0,0,1,374.5757575757574,419.75757575757575) translate(11.075 17.1)"/><use xlink:href="#p" transform="matrix(1,0,0,1,465.79125343031035,419.75757575757575) translate(0 17.1)"/><path d="M489.58 449.26v40h540v-40" stroke="#d8d8d8" stroke-width="2" fill="none"/><path fill="#fff"/><path d="M499.58 470.26h-20v-2h20zM1040.47 449.7l-10.9 21.8-10.9-21.8.9-.44h1.12l8.88 17.76 8.88-17.76h1.12z" fill="#d8d8d8"/><path d="M809.58 327.26h60v-96h60" stroke="#d8d8d8" stroke-width="2" fill="none"/><path fill="#fff"/><path d="M830.58 337.26h-2v-20h2zM929.58 221.26v1.12l-17.77 8.88 17.78 8.88v1.12l-.45.9-21.8-10.9 21.8-10.9z" fill="#d8d8d8"/><path d="M929.58 175.26h200v136h-200z" fill="#666"/><path d="M929.58 175.26h200v40h-200z" fill="#525252"/><path d="M929.58 175.26h200v136h-200zM929.58 215.26h200M989.58 215.26v96" stroke="#cacaca" stroke-width="2" fill="none"/><use xlink:href="#q" transform="matrix(1,0,0,1,939.5757575757574,175.25757575757575) translate(63.575 23.6)"/><use xlink:href="#r" transform="matrix(1,0,0,1,934.5757575757574,217.75757575757575) translate(13 17.1)"/><use xlink:href="#s" transform="matrix(1,0,0,1,994.5757575757574,217.75757575757575) translate(0 17.1)"/><use xlink:href="#t" transform="matrix(1,0,0,1,934.5757575757574,249.75757575757575) translate(3.0249999999999986 17.1)"/><use xlink:href="#u" transform="matrix(1,0,0,1,994.5757575757574,249.75757575757575) translate(0 17.1)"/><use xlink:href="#v" transform="matrix(1,0,0,1,934.5757575757574,281.75757575757575) translate(8.524999999999999 17.1)"/><use xlink:href="#u" transform="matrix(1,0,0,1,994.5757575757574,281.75757575757575) translate(0 17.1)"/><path d="M729.58 359.26h-60v-128h-60" stroke="#d8d8d8" stroke-width="2" fill="none"/><path fill="#fff"/><path d="M710.58 369.26h-2v-20h2zM631.8 231.26l-21.78 10.9-.44-.9v-1.12l17.76-8.88-17.76-8.88v-1.12l.44-.9z" fill="#d8d8d8"/><path d="M409.58 175.26h200v104h-200z" fill="#666"/><path d="M409.58 175.26h200v40h-200z" fill="#525252"/><path d="M409.58 175.26h200v104h-200zM409.58 215.26h200M531.27 215.26v64" stroke="#cacaca" stroke-width="2" fill="none"/><use xlink:href="#w" transform="matrix(1,0,0,1,419.5757575757574,175.25757575757575) translate(47.5 23.6)"/><use xlink:href="#x" transform="matrix(1,0,0,1,419.5757575757574,175.25757575757575) translate(92.5 23.6)"/><use xlink:href="#y" transform="matrix(1,0,0,1,419.5757575757574,175.25757575757575) translate(102.5 23.6)"/><use xlink:href="#z" transform="matrix(1,0,0,1,414.5757575757574,217.75757575757575) translate(34.525 17.1)"/><use xlink:href="#u" transform="matrix(1,0,0,1,536.2708505960389,217.75757575757575) translate(0 17.1)"/><use xlink:href="#A" transform="matrix(1,0,0,1,414.5757575757574,249.75757575757575) translate(12.624999999999993 17.1)"/><use xlink:href="#u" transform="matrix(1,0,0,1,536.2708505960389,249.75757575757575) translate(0 17.1)"/><path d="M729.58 391.26h-60v10h-60" stroke="#d8d8d8" stroke-width="2" fill="none"/><path fill="#fff"/><path d="M710.58 401.26h-2v-20h2zM631.8 401.26l-21.78 10.9-.44-.9v-1.12l17.76-8.88-17.76-8.88v-1.12l.44-.9z" fill="#d8d8d8"/><defs><path fill="#fff" d="M115-3C79 11 28 4 28-45v-112H4v-33h27l15-45h31v45h36v33H77v99c-1 23 16 31 38 25v30" id="B"/><path fill="#fff" d="M114-157C55-157 80-60 75 0H25v-261h50l-1 109c12-26 28-41 61-42 86-1 58 113 63 194h-50c-7-57 23-157-34-157" id="C"/><path fill="#fff" d="M25-224v-37h50v37H25zM25 0v-190h50V0H25" id="D"/><path fill="#fff" d="M135-194c87-1 58 113 63 194h-50c-7-57 23-157-34-157-59 0-34 97-39 157H25l-1-190h47c2 12-1 28 3 38 12-26 28-41 61-42" id="E"/><path fill="#fff" d="M195-6C206 82 75 100 31 46c-4-6-6-13-8-21l49-6c3 16 16 24 34 25 40 0 42-37 40-79-11 22-30 35-61 35-53 0-70-43-70-97 0-56 18-96 73-97 30 0 46 14 59 34l2-30h47zm-90-29c32 0 41-27 41-63 0-35-9-62-40-62-32 0-39 29-40 63 0 36 9 62 39 62" id="F"/><g id="a"><use transform="matrix(0.05,0,0,0.05,0,0)" xlink:href="#B"/><use transform="matrix(0.05,0,0,0.05,5.95,0)" xlink:href="#C"/><use transform="matrix(0.05,0,0,0.05,16.900000000000002,0)" xlink:href="#D"/><use transform="matrix(0.05,0,0,0.05,21.900000000000002,0)" xlink:href="#E"/><use transform="matrix(0.05,0,0,0.05,32.85,0)" xlink:href="#F"/></g><path fill="#fff" d="M24 0v-248h52V0H24" id="G"/><path fill="#fff" d="M24-248c120-7 223 5 221 122C244-46 201 0 124 0H24v-248zM76-40c74 7 117-18 117-86 0-67-45-88-117-82v168" id="H"/><g id="b"><use transform="matrix(0.05,0,0,0.05,0,0)" xlink:href="#G"/><use transform="matrix(0.05,0,0,0.05,5,0)" xlink:href="#H"/></g><path fill="#fff" d="M117-194c89-4 53 116 60 194h-32v-121c0-31-8-49-39-48C34-167 62-67 57 0H25l-1-190h30c1 10-1 24 2 32 11-22 29-35 61-36" id="I"/><path fill="#fff" d="M141-36C126-15 110 5 73 4 37 3 15-17 15-53c-1-64 63-63 125-63 3-35-9-54-41-54-24 1-41 7-42 31l-33-3c5-37 33-52 76-52 45 0 72 20 72 64v82c-1 20 7 32 28 27v20c-31 9-61-2-59-35zM48-53c0 20 12 33 32 33 41-3 63-29 60-74-43 2-92-5-92 41" id="J"/><path fill="#fff" d="M210-169c-67 3-38 105-44 169h-31v-121c0-29-5-50-35-48C34-165 62-65 56 0H25l-1-190h30c1 10-1 24 2 32 10-44 99-50 107 0 11-21 27-35 58-36 85-2 47 119 55 194h-31v-121c0-29-5-49-35-48" id="K"/><path fill="#fff" d="M100-194c63 0 86 42 84 106H49c0 40 14 67 53 68 26 1 43-12 49-29l28 8c-11 28-37 45-77 45C44 4 14-33 15-96c1-61 26-98 85-98zm52 81c6-60-76-77-97-28-3 7-6 17-6 28h103" id="L"/><g id="c"><use transform="matrix(0.05,0,0,0.05,0,0)" xlink:href="#I"/><use transform="matrix(0.05,0,0,0.05,10,0)" xlink:href="#J"/><use transform="matrix(0.05,0,0,0.05,20,0)" xlink:href="#K"/><use transform="matrix(0.05,0,0,0.05,34.95,0)" xlink:href="#L"/></g><path fill="#fff" d="M24-231v-30h32v30H24zM24 0v-190h32V0H24" id="M"/><path fill="#fff" d="M101-234c-31-9-42 10-38 44h38v23H63V0H32v-167H5v-23h27c-7-52 17-82 69-68v24" id="N"/><path fill="#fff" d="M100-194c62-1 85 37 85 99 1 63-27 99-86 99S16-35 15-95c0-66 28-99 85-99zM99-20c44 1 53-31 53-75 0-43-8-75-51-75s-53 32-53 75 10 74 51 75" id="O"/><g id="d"><use transform="matrix(0.05,0,0,0.05,0,0)" xlink:href="#M"/><use transform="matrix(0.05,0,0,0.05,3.95,0)" xlink:href="#I"/><use transform="matrix(0.05,0,0,0.05,13.949999999999998,0)" xlink:href="#N"/><use transform="matrix(0.05,0,0,0.05,18.95,0)" xlink:href="#O"/></g><path fill="#fff" d="M220-157c-53 9-28 100-34 157h-49v-107c1-27-5-49-29-50C55-147 81-57 75 0H25l-1-190h47c2 12-1 28 3 38 10-53 101-56 108 0 13-22 24-43 59-42 82 1 51 116 57 194h-49v-107c-1-25-5-48-29-50" id="P"/><g id="e"><use transform="matrix(0.05,0,0,0.05,0,0)" xlink:href="#D"/><use transform="matrix(0.05,0,0,0.05,5,0)" xlink:href="#P"/><use transform="matrix(0.05,0,0,0.05,21,0)" xlink:href="#F"/></g><path fill="#fff" d="M85 4C-2 5 27-109 22-190h50c7 57-23 150 33 157 60-5 35-97 40-157h50l1 190h-47c-2-12 1-28-3-38-12 25-28 42-61 42" id="Q"/><path fill="#fff" d="M135-150c-39-12-60 13-60 57V0H25l-1-190h47c2 13-1 29 3 40 6-28 27-53 61-41v41" id="R"/><path fill="#fff" d="M25 0v-261h50V0H25" id="S"/><g id="f"><use transform="matrix(0.05,0,0,0.05,0,0)" xlink:href="#Q"/><use transform="matrix(0.05,0,0,0.05,10.950000000000001,0)" xlink:href="#R"/><use transform="matrix(0.05,0,0,0.05,17.950000000000003,0)" xlink:href="#S"/></g><path fill="#f9d2de" d="M136-208V0H84v-208H4v-40h212v40h-80" id="T"/><path fill="#f9d2de" d="M146-102V0H94v-102L6-248h54l60 105 60-105h54" id="U"/><path fill="#f9d2de" d="M24-248c93 1 206-16 204 79-1 75-69 88-152 82V0H24v-248zm52 121c47 0 100 7 100-41 0-47-54-39-100-39v80" id="V"/><path fill="#f9d2de" d="M24 0v-248h195v40H76v63h132v40H76v65h150V0H24" id="W"/><g id="g"><use transform="matrix(0.05,0,0,0.05,0,0)" xlink:href="#T"/><use transform="matrix(0.05,0,0,0.05,10.950000000000001,0)" xlink:href="#U"/><use transform="matrix(0.05,0,0,0.05,22.950000000000003,0)" xlink:href="#V"/><use transform="matrix(0.05,0,0,0.05,34.95,0)" xlink:href="#W"/></g><path fill="#f9d2de" d="M185-48c-13 30-37 53-82 52C43 2 14-33 14-96s30-98 90-98c62 0 83 45 84 108H66c0 31 8 55 39 56 18 0 30-7 34-22zm-45-69c5-46-57-63-70-21-2 6-4 13-4 21h74" id="X"/><path fill="#f9d2de" d="M128 0H69L1-190h53L99-40l48-150h52" id="Y"/><path fill="#f9d2de" d="M135-194c87-1 58 113 63 194h-50c-7-57 23-157-34-157-59 0-34 97-39 157H25l-1-190h47c2 12-1 28 3 38 12-26 28-41 61-42" id="Z"/><path fill="#f9d2de" d="M115-3C79 11 28 4 28-45v-112H4v-33h27l15-45h31v45h36v33H77v99c-1 23 16 31 38 25v30" id="aa"/><g id="h"><use transform="matrix(0.05,0,0,0.05,0,0)" xlink:href="#X"/><use transform="matrix(0.05,0,0,0.05,10,0)" xlink:href="#Y"/><use transform="matrix(0.05,0,0,0.05,20,0)" xlink:href="#X"/><use transform="matrix(0.05,0,0,0.05,30,0)" xlink:href="#Z"/><use transform="matrix(0.05,0,0,0.05,40.95,0)" xlink:href="#aa"/></g><path fill="#fff" d="M85-194c31 0 48 13 60 33l-1-100h32l1 261h-30c-2-10 0-23-3-31C134-8 116 4 85 4 32 4 16-35 15-94c0-66 23-100 70-100zm9 24c-40 0-46 34-46 75 0 40 6 74 45 74 42 0 51-32 51-76 0-42-9-74-50-73" id="ab"/><path fill="#fff" d="M59-47c-2 24 18 29 38 22v24C64 9 27 4 27-40v-127H5v-23h24l9-43h21v43h35v23H59v120" id="ac"/><g id="i"><use transform="matrix(0.05,0,0,0.05,0,0)" xlink:href="#ab"/><use transform="matrix(0.05,0,0,0.05,10,0)" xlink:href="#J"/><use transform="matrix(0.05,0,0,0.05,20,0)" xlink:href="#ac"/><use transform="matrix(0.05,0,0,0.05,25,0)" xlink:href="#L"/></g><path fill="#fff" d="M179-190L93 31C79 59 56 82 12 73V49c39 6 53-20 64-50L1-190h34L92-34l54-156h33" id="ad"/><path fill="#fff" d="M16-82v-28h88v28H16" id="ae"/><g id="j"><use transform="matrix(0.05,0,0,0.05,0,0)" xlink:href="#ad"/><use transform="matrix(0.05,0,0,0.05,9,0)" xlink:href="#ad"/><use transform="matrix(0.05,0,0,0.05,18,0)" xlink:href="#ad"/><use transform="matrix(0.05,0,0,0.05,27,0)" xlink:href="#ad"/><use transform="matrix(0.05,0,0,0.05,36,0)" xlink:href="#ae"/><use transform="matrix(0.05,0,0,0.05,41.95,0)" xlink:href="#K"/><use transform="matrix(0.05,0,0,0.05,56.900000000000006,0)" xlink:href="#K"/><use transform="matrix(0.05,0,0,0.05,71.85000000000001,0)" xlink:href="#ae"/><use transform="matrix(0.05,0,0,0.05,77.80000000000001,0)" xlink:href="#ab"/><use transform="matrix(0.05,0,0,0.05,87.80000000000001,0)" xlink:href="#ab"/></g><path fill="#f9d2de" d="M135-194c53 0 70 44 70 98 0 56-19 98-73 100-31 1-45-17-59-34 3 33 2 69 2 105H25l-1-265h48c2 10 0 23 3 31 11-24 29-35 60-35zM114-30c33 0 39-31 40-66 0-38-9-64-40-64-56 0-55 130 0 130" id="af"/><path fill="#f9d2de" d="M25 0v-261h50V0H25" id="ag"/><path fill="#f9d2de" d="M133-34C117-15 103 5 69 4 32 3 11-16 11-54c-1-60 55-63 116-61 1-26-3-47-28-47-18 1-26 9-28 27l-52-2c7-38 36-58 82-57s74 22 75 68l1 82c-1 14 12 18 25 15v27c-30 8-71 5-69-32zm-48 3c29 0 43-24 42-57-32 0-66-3-65 30 0 17 8 27 23 27" id="ah"/><path fill="#f9d2de" d="M190-63c-7 42-38 67-86 67-59 0-84-38-90-98-12-110 154-137 174-36l-49 2c-2-19-15-32-35-32-30 0-35 28-38 64-6 74 65 87 74 30" id="ai"/><g id="k"><use transform="matrix(0.05,0,0,0.05,0,0)" xlink:href="#af"/><use transform="matrix(0.05,0,0,0.05,10.950000000000001,0)" xlink:href="#ag"/><use transform="matrix(0.05,0,0,0.05,15.950000000000001,0)" xlink:href="#ah"/><use transform="matrix(0.05,0,0,0.05,25.950000000000003,0)" xlink:href="#ai"/><use transform="matrix(0.05,0,0,0.05,35.95,0)" xlink:href="#X"/></g><path fill="#f9d2de" d="M-4 44V30h207v14H-4" id="aj"/><path fill="#f9d2de" d="M24 0v-248h52V0H24" id="ak"/><path fill="#f9d2de" d="M24-248c120-7 223 5 221 122C244-46 201 0 124 0H24v-248zM76-40c74 7 117-18 117-86 0-67-45-88-117-82v168" id="al"/><g id="l"><use transform="matrix(0.05,0,0,0.05,0,0)" xlink:href="#af"/><use transform="matrix(0.05,0,0,0.05,10.950000000000001,0)" xlink:href="#ag"/><use transform="matrix(0.05,0,0,0.05,15.950000000000001,0)" xlink:href="#ah"/><use transform="matrix(0.05,0,0,0.05,25.950000000000003,0)" xlink:href="#ai"/><use transform="matrix(0.05,0,0,0.05,35.95,0)" xlink:href="#X"/><use transform="matrix(0.05,0,0,0.05,45.95,0)" xlink:href="#aj"/><use transform="matrix(0.05,0,0,0.05,55.95,0)" xlink:href="#ak"/><use transform="matrix(0.05,0,0,0.05,60.95,0)" xlink:href="#al"/></g><path fill="#fff" d="M135-194c52 0 70 43 70 98 0 56-19 99-73 100-30 1-46-15-58-35L72 0H24l1-261h50v104c11-23 29-37 60-37zM114-30c31 0 40-27 40-66 0-37-7-63-39-63s-41 28-41 65c0 36 8 64 40 64" id="am"/><path fill="#fff" d="M110-194c64 0 96 36 96 99 0 64-35 99-97 99-61 0-95-36-95-99 0-62 34-99 96-99zm-1 164c35 0 45-28 45-65 0-40-10-65-43-65-34 0-45 26-45 65 0 36 10 65 43 65" id="an"/><path fill="#fff" d="M88-194c31-1 46 15 58 34l-1-101h50l1 261h-48c-2-10 0-23-3-31C134-8 116 4 84 4 32 4 16-41 15-95c0-56 19-97 73-99zm17 164c33 0 40-30 41-66 1-37-9-64-41-64s-38 30-39 65c0 43 13 65 39 65" id="ao"/><path fill="#fff" d="M137-138c1-29-70-34-71-4 15 46 118 7 119 86 1 83-164 76-172 9l43-7c4 19 20 25 44 25 33 8 57-30 24-41C81-84 22-81 20-136c-2-80 154-74 161-7" id="ap"/><g id="m"><use transform="matrix(0.05,0,0,0.05,0,0)" xlink:href="#am"/><use transform="matrix(0.05,0,0,0.05,10.950000000000001,0)" xlink:href="#an"/><use transform="matrix(0.05,0,0,0.05,21.900000000000002,0)" xlink:href="#Q"/><use transform="matrix(0.05,0,0,0.05,32.85,0)" xlink:href="#E"/><use transform="matrix(0.05,0,0,0.05,43.800000000000004,0)" xlink:href="#ao"/><use transform="matrix(0.05,0,0,0.05,54.75,0)" xlink:href="#ap"/></g><path fill="#fff" d="M185-48c-13 30-37 53-82 52C43 2 14-33 14-96s30-98 90-98c62 0 83 45 84 108H66c0 31 8 55 39 56 18 0 30-7 34-22zm-45-69c5-46-57-63-70-21-2 6-4 13-4 21h74" id="aq"/><path fill="#fff" d="M123 10C108 53 80 86 19 72V37c35 8 53-11 59-39L3-190h52l48 148c12-52 28-100 44-148h51" id="ar"/><g id="n"><use transform="matrix(0.05,0,0,0.05,0,0)" xlink:href="#F"/><use transform="matrix(0.05,0,0,0.05,10.950000000000001,0)" xlink:href="#aq"/><use transform="matrix(0.05,0,0,0.05,20.950000000000003,0)" xlink:href="#an"/><use transform="matrix(0.05,0,0,0.05,31.900000000000006,0)" xlink:href="#P"/><use transform="matrix(0.05,0,0,0.05,47.900000000000006,0)" xlink:href="#aq"/><use transform="matrix(0.05,0,0,0.05,57.900000000000006,0)" xlink:href="#B"/><use transform="matrix(0.05,0,0,0.05,63.85,0)" xlink:href="#R"/><use transform="matrix(0.05,0,0,0.05,70.85000000000001,0)" xlink:href="#ar"/></g><g id="o"><use transform="matrix(0.05,0,0,0.05,0,0)" xlink:href="#C"/><use transform="matrix(0.05,0,0,0.05,10.950000000000001,0)" xlink:href="#D"/><use transform="matrix(0.05,0,0,0.05,15.950000000000001,0)" xlink:href="#ap"/><use transform="matrix(0.05,0,0,0.05,25.950000000000003,0)" xlink:href="#B"/><use transform="matrix(0.05,0,0,0.05,31.900000000000002,0)" xlink:href="#an"/><use transform="matrix(0.05,0,0,0.05,42.85,0)" xlink:href="#R"/><use transform="matrix(0.05,0,0,0.05,49.85,0)" xlink:href="#ar"/></g><path fill="#fff" d="M128 0H69L1-190h53L99-40l48-150h52" id="as"/><g id="p"><use transform="matrix(0.05,0,0,0.05,0,0)" xlink:href="#aq"/><use transform="matrix(0.05,0,0,0.05,10,0)" xlink:href="#as"/><use transform="matrix(0.05,0,0,0.05,20,0)" xlink:href="#aq"/><use transform="matrix(0.05,0,0,0.05,30,0)" xlink:href="#E"/><use transform="matrix(0.05,0,0,0.05,40.95,0)" xlink:href="#B"/><use transform="matrix(0.05,0,0,0.05,46.900000000000006,0)" xlink:href="#ap"/></g><path fill="#fff" d="M177-190C167-65 218 103 67 71c-23-6-38-20-44-43l32-5c15 47 100 32 89-28v-30C133-14 115 1 83 1 29 1 15-40 15-95c0-56 16-97 71-98 29-1 48 16 59 35 1-10 0-23 2-32h30zM94-22c36 0 50-32 50-73 0-42-14-75-50-75-39 0-46 34-46 75s6 73 46 73" id="at"/><path fill="#fff" d="M24 0v-261h32V0H24" id="au"/><path fill="#fff" d="M114-163C36-179 61-72 57 0H25l-1-190h30c1 12-1 29 2 39 6-27 23-49 58-41v29" id="av"/><g id="q"><use transform="matrix(0.05,0,0,0.05,0,0)" xlink:href="#at"/><use transform="matrix(0.05,0,0,0.05,10,0)" xlink:href="#J"/><use transform="matrix(0.05,0,0,0.05,20,0)" xlink:href="#au"/><use transform="matrix(0.05,0,0,0.05,23.95,0)" xlink:href="#au"/><use transform="matrix(0.05,0,0,0.05,27.899999999999995,0)" xlink:href="#L"/><use transform="matrix(0.05,0,0,0.05,37.9,0)" xlink:href="#av"/><use transform="matrix(0.05,0,0,0.05,43.85,0)" xlink:href="#ad"/></g><path fill="#fff" d="M135-143c-3-34-86-38-87 0 15 53 115 12 119 90S17 21 10-45l28-5c4 36 97 45 98 0-10-56-113-15-118-90-4-57 82-63 122-42 12 7 21 19 24 35" id="aw"/><g id="r"><use transform="matrix(0.05,0,0,0.05,0,0)" xlink:href="#aw"/><use transform="matrix(0.05,0,0,0.05,9,0)" xlink:href="#L"/><use transform="matrix(0.05,0,0,0.05,19,0)" xlink:href="#ac"/></g><g id="s"><use transform="matrix(0.05,0,0,0.05,0,0)" xlink:href="#ab"/><use transform="matrix(0.05,0,0,0.05,10,0)" xlink:href="#M"/><use transform="matrix(0.05,0,0,0.05,13.949999999999998,0)" xlink:href="#av"/></g><path fill="#fff" d="M96-169c-40 0-48 33-48 73s9 75 48 75c24 0 41-14 43-38l32 2c-6 37-31 61-74 61-59 0-76-41-82-99-10-93 101-131 147-64 4 7 5 14 7 22l-32 3c-4-21-16-35-41-35" id="ax"/><path fill="#fff" d="M108 0H70L1-190h34L89-25l56-165h34" id="ay"/><g id="t"><use transform="matrix(0.05,0,0,0.05,0,0)" xlink:href="#ax"/><use transform="matrix(0.05,0,0,0.05,9,0)" xlink:href="#O"/><use transform="matrix(0.05,0,0,0.05,19,0)" xlink:href="#ay"/><use transform="matrix(0.05,0,0,0.05,28,0)" xlink:href="#L"/><use transform="matrix(0.05,0,0,0.05,38,0)" xlink:href="#av"/></g><path fill="#fff" d="M84 4C-5 8 30-112 23-190h32v120c0 31 7 50 39 49 72-2 45-101 50-169h31l1 190h-30c-1-10 1-25-2-33-11 22-28 36-60 37" id="az"/><g id="u"><use transform="matrix(0.05,0,0,0.05,0,0)" xlink:href="#az"/><use transform="matrix(0.05,0,0,0.05,10,0)" xlink:href="#av"/><use transform="matrix(0.05,0,0,0.05,15.949999999999998,0)" xlink:href="#au"/></g><g id="v"><use transform="matrix(0.05,0,0,0.05,0,0)" xlink:href="#M"/><use transform="matrix(0.05,0,0,0.05,3.95,0)" xlink:href="#ax"/><use transform="matrix(0.05,0,0,0.05,12.949999999999998,0)" xlink:href="#O"/><use transform="matrix(0.05,0,0,0.05,22.95,0)" xlink:href="#I"/></g><path fill="#fff" d="M115-194c55 1 70 41 70 98S169 2 115 4C84 4 66-9 55-30l1 105H24l-1-265h31l2 30c10-21 28-34 59-34zm-8 174c40 0 45-34 45-75s-6-73-45-74c-42 0-51 32-51 76 0 43 10 73 51 73" id="aA"/><g id="w"><use transform="matrix(0.05,0,0,0.05,0,0)" xlink:href="#aA"/><use transform="matrix(0.05,0,0,0.05,10,0)" xlink:href="#J"/><use transform="matrix(0.05,0,0,0.05,20,0)" xlink:href="#at"/><use transform="matrix(0.05,0,0,0.05,30,0)" xlink:href="#L"/></g><path fill="#fff" d="M0 4l72-265h28L28 4H0" id="aB"/><use transform="matrix(0.05,0,0,0.05,0,0)" xlink:href="#aB" id="x"/><g id="y"><use transform="matrix(0.05,0,0,0.05,0,0)" xlink:href="#J"/><use transform="matrix(0.05,0,0,0.05,10,0)" xlink:href="#aA"/><use transform="matrix(0.05,0,0,0.05,20,0)" xlink:href="#aA"/></g><path fill="#fff" d="M141 0L90-78 38 0H4l68-98-65-92h35l48 74 47-74h35l-64 92 68 98h-35" id="aC"/><g id="z"><use transform="matrix(0.05,0,0,0.05,0,0)" xlink:href="#M"/><use transform="matrix(0.05,0,0,0.05,3.95,0)" xlink:href="#I"/><use transform="matrix(0.05,0,0,0.05,13.949999999999998,0)" xlink:href="#ab"/><use transform="matrix(0.05,0,0,0.05,23.95,0)" xlink:href="#L"/><use transform="matrix(0.05,0,0,0.05,33.95,0)" xlink:href="#aC"/></g><g id="A"><use transform="matrix(0.05,0,0,0.05,0,0)" xlink:href="#K"/><use transform="matrix(0.05,0,0,0.05,14.950000000000001,0)" xlink:href="#az"/><use transform="matrix(0.05,0,0,0.05,24.950000000000003,0)" xlink:href="#au"/><use transform="matrix(0.05,0,0,0.05,28.900000000000002,0)" xlink:href="#ac"/><use transform="matrix(0.05,0,0,0.05,33.900000000000006,0)" xlink:href="#M"/><use transform="matrix(0.05,0,0,0.05,37.85000000000001,0)" xlink:href="#K"/><use transform="matrix(0.05,0,0,0.05,52.80000000000001,0)" xlink:href="#L"/><use transform="matrix(0.05,0,0,0.05,62.80000000000001,0)" xlink:href="#ab"/><use transform="matrix(0.05,0,0,0.05,72.80000000000001,0)" xlink:href="#M"/><use transform="matrix(0.05,0,0,0.05,76.75000000000001,0)" xlink:href="#J"/></g></defs></g></svg>