<svg xmlns="http://www.w3.org/2000/svg" xmlns:xlink="http://www.w3.org/1999/xlink" xmlns:lucid="lucid" width="680" height="440"><g transform="translate(1700 0)" lucid:page-tab-id="Y7lJunr69icb"><path d="M-1680 20h100v60h-100z" stroke="#000" stroke-opacity="0" stroke-width="2" fill="#fff" fill-opacity="0"/><use xlink:href="#a" transform="matrix(1,0,0,1,-1675,25) translate(14.777777777777775 30.333333333333336)"/><path d="M-1680 100l24-20h196v176l-20 24h-200z" stroke="#cacaca" stroke-width="2" fill="#666"/><path d="M-1680 100l24-20h196l-20 20z" stroke="#cacaca" stroke-width="2" fill="#5c5c5c"/><path d="M-1480 100l20-20v176l-20 24z" stroke="#cacaca" stroke-width="2" fill="#525252"/><use xlink:href="#b" transform="matrix(1,0,0,1,-1672,108) translate(-1.7962962962962905 17.77777777777778)"/><path d="M-1501 186h81v234h-220V160h132zm-139 0h139" stroke="#cacaca" stroke-width="2" fill="#de5f85"/><use xlink:href="#c" transform="matrix(1,0,0,1,-1632,160) translate(0 16.6)"/><use xlink:href="#d" transform="matrix(1,0,0,1,-1628,194) translate(0 15.400000000000015)"/><use xlink:href="#e" transform="matrix(1,0,0,1,-1628,194) translate(0 37.000000000000014)"/><use xlink:href="#f" transform="matrix(1,0,0,1,-1628,194) translate(0 58.600000000000016)"/><use xlink:href="#g" transform="matrix(1,0,0,1,-1628,194) translate(0 80.20000000000003)"/><use xlink:href="#h" transform="matrix(1,0,0,1,-1628,194) translate(0 101.80000000000003)"/><use xlink:href="#i" transform="matrix(1,0,0,1,-1628,194) translate(0 123.40000000000002)"/><use xlink:href="#j" transform="matrix(1,0,0,1,-1628,194) translate(0 145.00000000000003)"/><use xlink:href="#k" transform="matrix(1,0,0,1,-1628,194) translate(0 166.6)"/><use xlink:href="#l" transform="matrix(1,0,0,1,-1628,194) translate(0 188.20000000000002)"/><use xlink:href="#m" transform="matrix(1,0,0,1,-1628,194) translate(0 209.79999999999998)"/><path d="M-1380 284h340v136h-340z" fill="#666"/><path d="M-1380 356h340v32h-340z" fill="#5c5c5c"/><path d="M-1380 284h340v40h-340z" fill="#525252"/><path d="M-1380 284h340v136h-340zM-1380 324h340M-1238.67 324v96" stroke="#cacaca" stroke-width="2" fill="none"/><g><use xlink:href="#n" transform="matrix(1,0,0,1,-1370,284) translate(101.55 23.6)"/></g><g><use xlink:href="#o" transform="matrix(1,0,0,1,-1375,326.5) translate(0 17.1)"/></g><g><use xlink:href="#p" transform="matrix(1,0,0,1,-1233.6666666666667,326.5) translate(0 17.1)"/></g><g><use xlink:href="#q" transform="matrix(1,0,0,1,-1375,358.5) translate(0 17.1)"/></g><g><use xlink:href="#r" transform="matrix(1,0,0,1,-1233.6666666666667,358.5) translate(0 17.1)"/></g><g><use xlink:href="#s" transform="matrix(1,0,0,1,-1375,390.5) translate(0 17.1)"/></g><g><use xlink:href="#t" transform="matrix(1,0,0,1,-1233.6666666666667,390.5) translate(0 17.1)"/></g><defs><path fill="#fff" d="M240-174c0 40-23 61-54 70L253 0h-59l-57-94H76V0H24v-248c93 4 217-23 216 74zM76-134c48-2 112 12 112-38 0-48-66-32-112-35v73" id="u"/><path fill="#fff" d="M110-194c64 0 96 36 96 99 0 64-35 99-97 99-61 0-95-36-95-99 0-62 34-99 96-99zm-1 164c35 0 45-28 45-65 0-40-10-65-43-65-34 0-45 26-45 65 0 36 10 65 43 65" id="v"/><path fill="#fff" d="M115-3C79 11 28 4 28-45v-112H4v-33h27l15-45h31v45h36v33H77v99c-1 23 16 31 38 25v30" id="w"/><g id="a"><use transform="matrix(0.07407407407407408,0,0,0.07407407407407408,0,0)" xlink:href="#u"/><use transform="matrix(0.07407407407407408,0,0,0.07407407407407408,19.185185185185187,0)" xlink:href="#v"/><use transform="matrix(0.07407407407407408,0,0,0.07407407407407408,35.40740740740741,0)" xlink:href="#v"/><use transform="matrix(0.07407407407407408,0,0,0.07407407407407408,51.62962962962963,0)" xlink:href="#w"/></g><path fill="#fff" d="M175 0L67-191c6 58 2 128 3 191H24v-248h59L193-55c-6-58-2-129-3-193h46V0h-61" id="x"/><path fill="#fff" d="M88-194c31-1 46 15 58 34l-1-101h50l1 261h-48c-2-10 0-23-3-31C134-8 116 4 84 4 32 4 16-41 15-95c0-56 19-97 73-99zm17 164c33 0 40-30 41-66 1-37-9-64-41-64s-38 30-39 65c0 43 13 65 39 65" id="y"/><path fill="#fff" d="M185-48c-13 30-37 53-82 52C43 2 14-33 14-96s30-98 90-98c62 0 83 45 84 108H66c0 31 8 55 39 56 18 0 30-7 34-22zm-45-69c5-46-57-63-70-21-2 6-4 13-4 21h74" id="z"/><path fill="#fff" d="M-4 44V30h207v14H-4" id="A"/><path fill="#fff" d="M230 0l2-204L168 0h-37L68-204 70 0H24v-248h70l56 185 57-185h69V0h-46" id="B"/><path fill="#fff" d="M85 4C-2 5 27-109 22-190h50c7 57-23 150 33 157 60-5 35-97 40-157h50l1 190h-47c-2-12 1-28-3-38-12 25-28 42-61 42" id="C"/><path fill="#fff" d="M25 0v-261h50V0H25" id="D"/><path fill="#fff" d="M137-138c1-29-70-34-71-4 15 46 118 7 119 86 1 83-164 76-172 9l43-7c4 19 20 25 44 25 33 8 57-30 24-41C81-84 22-81 20-136c-2-80 154-74 161-7" id="E"/><g id="b"><use transform="matrix(0.06172839506172839,0,0,0.06172839506172839,0,0)" xlink:href="#x"/><use transform="matrix(0.06172839506172839,0,0,0.06172839506172839,15.987654320987653,0)" xlink:href="#v"/><use transform="matrix(0.06172839506172839,0,0,0.06172839506172839,29.50617283950617,0)" xlink:href="#y"/><use transform="matrix(0.06172839506172839,0,0,0.06172839506172839,43.02469135802469,0)" xlink:href="#z"/><use transform="matrix(0.06172839506172839,0,0,0.06172839506172839,55.37037037037037,0)" xlink:href="#A"/><use transform="matrix(0.06172839506172839,0,0,0.06172839506172839,67.71604938271605,0)" xlink:href="#B"/><use transform="matrix(0.06172839506172839,0,0,0.06172839506172839,86.17283950617283,0)" xlink:href="#v"/><use transform="matrix(0.06172839506172839,0,0,0.06172839506172839,99.69135802469135,0)" xlink:href="#y"/><use transform="matrix(0.06172839506172839,0,0,0.06172839506172839,113.20987654320987,0)" xlink:href="#C"/><use transform="matrix(0.06172839506172839,0,0,0.06172839506172839,126.72839506172839,0)" xlink:href="#D"/><use transform="matrix(0.06172839506172839,0,0,0.06172839506172839,132.90123456790124,0)" xlink:href="#z"/><use transform="matrix(0.06172839506172839,0,0,0.06172839506172839,145.2469135802469,0)" xlink:href="#E"/></g><path fill="#fff" d="M143 4C61 4 22-44 18-125c-5-107 100-154 193-111 17 8 29 25 37 43l-32 9c-13-25-37-40-76-40-61 0-88 39-88 99 0 61 29 100 91 101 35 0 62-11 79-27v-45h-74v-28h105v86C228-13 192 4 143 4" id="F"/><path fill="#fff" d="M141-36C126-15 110 5 73 4 37 3 15-17 15-53c-1-64 63-63 125-63 3-35-9-54-41-54-24 1-41 7-42 31l-33-3c5-37 33-52 76-52 45 0 72 20 72 64v82c-1 20 7 32 28 27v20c-31 9-61-2-59-35zM48-53c0 20 12 33 32 33 41-3 63-29 60-74-43 2-92-5-92 41" id="G"/><path fill="#fff" d="M59-47c-2 24 18 29 38 22v24C64 9 27 4 27-40v-127H5v-23h24l9-43h21v43h35v23H59v120" id="H"/><path fill="#fff" d="M135-143c-3-34-86-38-87 0 15 53 115 12 119 90S17 21 10-45l28-5c4 36 97 45 98 0-10-56-113-15-118-90-4-57 82-63 122-42 12 7 21 19 24 35" id="I"/><path fill="#fff" d="M115-194c53 0 69 39 70 98 0 66-23 100-70 100C84 3 66-7 56-30L54 0H23l1-261h32v101c10-23 28-34 59-34zm-8 174c40 0 45-34 45-75 0-40-5-75-45-74-42 0-51 32-51 76 0 43 10 73 51 73" id="J"/><path fill="#fff" d="M179-190L93 31C79 59 56 82 12 73V49c39 6 53-20 64-50L1-190h34L92-34l54-156h33" id="K"/><g id="c"><use transform="matrix(0.05,0,0,0.05,0,0)" xlink:href="#F"/><use transform="matrix(0.05,0,0,0.05,14,0)" xlink:href="#G"/><use transform="matrix(0.05,0,0,0.05,24,0)" xlink:href="#H"/><use transform="matrix(0.05,0,0,0.05,29,0)" xlink:href="#I"/><use transform="matrix(0.05,0,0,0.05,38,0)" xlink:href="#J"/><use transform="matrix(0.05,0,0,0.05,48,0)" xlink:href="#K"/></g><path fill="#fff" d="M16-82v-28h88v28H16" id="L"/><path fill="#fff" d="M24-231v-30h32v30H24zM24 0v-190h32V0H24" id="M"/><path fill="#fff" d="M210-169c-67 3-38 105-44 169h-31v-121c0-29-5-50-35-48C34-165 62-65 56 0H25l-1-190h30c1 10-1 24 2 32 10-44 99-50 107 0 11-21 27-35 58-36 85-2 47 119 55 194h-31v-121c0-29-5-49-35-48" id="N"/><path fill="#fff" d="M177-190C167-65 218 103 67 71c-23-6-38-20-44-43l32-5c15 47 100 32 89-28v-30C133-14 115 1 83 1 29 1 15-40 15-95c0-56 16-97 71-98 29-1 48 16 59 35 1-10 0-23 2-32h30zM94-22c36 0 50-32 50-73 0-42-14-75-50-75-39 0-46 34-46 75s6 73 46 73" id="O"/><path fill="#fff" d="M100-194c63 0 86 42 84 106H49c0 40 14 67 53 68 26 1 43-12 49-29l28 8c-11 28-37 45-77 45C44 4 14-33 15-96c1-61 26-98 85-98zm52 81c6-60-76-77-97-28-3 7-6 17-6 28h103" id="P"/><g id="d"><use transform="matrix(0.05,0,0,0.05,0,0)" xlink:href="#L"/><use transform="matrix(0.05,0,0,0.05,5.95,0)" xlink:href="#M"/><use transform="matrix(0.05,0,0,0.05,9.9,0)" xlink:href="#N"/><use transform="matrix(0.05,0,0,0.05,24.85,0)" xlink:href="#G"/><use transform="matrix(0.05,0,0,0.05,34.85,0)" xlink:href="#O"/><use transform="matrix(0.05,0,0,0.05,44.85,0)" xlink:href="#P"/></g><path fill="#fff" d="M24 0v-261h32V0H24" id="Q"/><path fill="#fff" d="M117-194c89-4 53 116 60 194h-32v-121c0-31-8-49-39-48C34-167 62-67 57 0H25l-1-190h30c1 10-1 24 2 32 11-22 29-35 61-36" id="R"/><path fill="#fff" d="M143 0L79-87 56-68V0H24v-261h32v163l83-92h37l-77 82L181 0h-38" id="S"/><g id="e"><use transform="matrix(0.05,0,0,0.05,0,0)" xlink:href="#L"/><use transform="matrix(0.05,0,0,0.05,5.95,0)" xlink:href="#Q"/><use transform="matrix(0.05,0,0,0.05,9.9,0)" xlink:href="#M"/><use transform="matrix(0.05,0,0,0.05,13.850000000000001,0)" xlink:href="#R"/><use transform="matrix(0.05,0,0,0.05,23.85,0)" xlink:href="#S"/></g><path fill="#fff" d="M115-194c55 1 70 41 70 98S169 2 115 4C84 4 66-9 55-30l1 105H24l-1-265h31l2 30c10-21 28-34 59-34zm-8 174c40 0 45-34 45-75s-6-73-45-74c-42 0-51 32-51 76 0 43 10 73 51 73" id="T"/><path fill="#fff" d="M84 4C-5 8 30-112 23-190h32v120c0 31 7 50 39 49 72-2 45-101 50-169h31l1 190h-30c-1-10 1-25-2-33-11 22-28 36-60 37" id="U"/><path fill="#fff" d="M100-194c62-1 85 37 85 99 1 63-27 99-86 99S16-35 15-95c0-66 28-99 85-99zM99-20c44 1 53-31 53-75 0-43-8-75-51-75s-53 32-53 75 10 74 51 75" id="V"/><path fill="#fff" d="M101-234c-31-9-42 10-38 44h38v23H63V0H32v-167H5v-23h27c-7-52 17-82 69-68v24" id="W"/><g id="f"><use transform="matrix(0.05,0,0,0.05,0,0)" xlink:href="#L"/><use transform="matrix(0.05,0,0,0.05,5.95,0)" xlink:href="#T"/><use transform="matrix(0.05,0,0,0.05,15.949999999999998,0)" xlink:href="#Q"/><use transform="matrix(0.05,0,0,0.05,19.9,0)" xlink:href="#U"/><use transform="matrix(0.05,0,0,0.05,29.899999999999995,0)" xlink:href="#O"/><use transform="matrix(0.05,0,0,0.05,39.9,0)" xlink:href="#M"/><use transform="matrix(0.05,0,0,0.05,43.85,0)" xlink:href="#R"/><use transform="matrix(0.05,0,0,0.05,53.85,0)" xlink:href="#L"/><use transform="matrix(0.05,0,0,0.05,59.800000000000004,0)" xlink:href="#V"/><use transform="matrix(0.05,0,0,0.05,69.80000000000001,0)" xlink:href="#W"/><use transform="matrix(0.05,0,0,0.05,74.45000000000002,0)" xlink:href="#W"/><use transform="matrix(0.05,0,0,0.05,79.45000000000002,0)" xlink:href="#Q"/><use transform="matrix(0.05,0,0,0.05,83.40000000000002,0)" xlink:href="#M"/><use transform="matrix(0.05,0,0,0.05,87.35000000000002,0)" xlink:href="#R"/><use transform="matrix(0.05,0,0,0.05,97.35000000000002,0)" xlink:href="#P"/></g><path fill="#fff" d="M114-163C36-179 61-72 57 0H25l-1-190h30c1 12-1 29 2 39 6-27 23-49 58-41v29" id="X"/><path fill="#fff" d="M96-169c-40 0-48 33-48 73s9 75 48 75c24 0 41-14 43-38l32 2c-6 37-31 61-74 61-59 0-76-41-82-99-10-93 101-131 147-64 4 7 5 14 7 22l-32 3c-4-21-16-35-41-35" id="Y"/><path fill="#fff" d="M141 0L90-78 38 0H4l68-98-65-92h35l48 74 47-74h35l-64 92 68 98h-35" id="Z"/><g id="g"><use transform="matrix(0.05,0,0,0.05,0,0)" xlink:href="#L"/><use transform="matrix(0.05,0,0,0.05,5.95,0)" xlink:href="#T"/><use transform="matrix(0.05,0,0,0.05,15.949999999999998,0)" xlink:href="#Q"/><use transform="matrix(0.05,0,0,0.05,19.9,0)" xlink:href="#U"/><use transform="matrix(0.05,0,0,0.05,29.899999999999995,0)" xlink:href="#O"/><use transform="matrix(0.05,0,0,0.05,39.9,0)" xlink:href="#M"/><use transform="matrix(0.05,0,0,0.05,43.85,0)" xlink:href="#R"/><use transform="matrix(0.05,0,0,0.05,53.85,0)" xlink:href="#L"/><use transform="matrix(0.05,0,0,0.05,59.800000000000004,0)" xlink:href="#X"/><use transform="matrix(0.05,0,0,0.05,65.75,0)" xlink:href="#P"/><use transform="matrix(0.05,0,0,0.05,75.75,0)" xlink:href="#G"/><use transform="matrix(0.05,0,0,0.05,85.75,0)" xlink:href="#Y"/><use transform="matrix(0.05,0,0,0.05,94.75,0)" xlink:href="#H"/><use transform="matrix(0.05,0,0,0.05,99.75,0)" xlink:href="#L"/><use transform="matrix(0.05,0,0,0.05,105.7,0)" xlink:href="#R"/><use transform="matrix(0.05,0,0,0.05,115.7,0)" xlink:href="#P"/><use transform="matrix(0.05,0,0,0.05,125.7,0)" xlink:href="#Z"/><use transform="matrix(0.05,0,0,0.05,134.7,0)" xlink:href="#H"/></g><path fill="#fff" d="M106-169C34-169 62-67 57 0H25v-261h32l-1 103c12-21 28-36 61-36 89 0 53 116 60 194h-32v-121c2-32-8-49-39-48" id="aa"/><g id="h"><use transform="matrix(0.05,0,0,0.05,0,0)" xlink:href="#L"/><use transform="matrix(0.05,0,0,0.05,5.95,0)" xlink:href="#T"/><use transform="matrix(0.05,0,0,0.05,15.949999999999998,0)" xlink:href="#Q"/><use transform="matrix(0.05,0,0,0.05,19.9,0)" xlink:href="#U"/><use transform="matrix(0.05,0,0,0.05,29.899999999999995,0)" xlink:href="#O"/><use transform="matrix(0.05,0,0,0.05,39.9,0)" xlink:href="#M"/><use transform="matrix(0.05,0,0,0.05,43.85,0)" xlink:href="#R"/><use transform="matrix(0.05,0,0,0.05,53.85,0)" xlink:href="#L"/><use transform="matrix(0.05,0,0,0.05,59.800000000000004,0)" xlink:href="#I"/><use transform="matrix(0.05,0,0,0.05,68.80000000000001,0)" xlink:href="#aa"/><use transform="matrix(0.05,0,0,0.05,78.80000000000001,0)" xlink:href="#G"/><use transform="matrix(0.05,0,0,0.05,88.80000000000001,0)" xlink:href="#X"/><use transform="matrix(0.05,0,0,0.05,94.75000000000001,0)" xlink:href="#T"/></g><g id="i"><use transform="matrix(0.05,0,0,0.05,0,0)" xlink:href="#L"/><use transform="matrix(0.05,0,0,0.05,5.95,0)" xlink:href="#I"/><use transform="matrix(0.05,0,0,0.05,14.949999999999998,0)" xlink:href="#V"/><use transform="matrix(0.05,0,0,0.05,24.95,0)" xlink:href="#U"/><use transform="matrix(0.05,0,0,0.05,34.95,0)" xlink:href="#X"/><use transform="matrix(0.05,0,0,0.05,40.900000000000006,0)" xlink:href="#Y"/><use transform="matrix(0.05,0,0,0.05,49.900000000000006,0)" xlink:href="#P"/><use transform="matrix(0.05,0,0,0.05,59.900000000000006,0)" xlink:href="#L"/><use transform="matrix(0.05,0,0,0.05,65.85000000000001,0)" xlink:href="#W"/><use transform="matrix(0.05,0,0,0.05,70.85000000000001,0)" xlink:href="#M"/><use transform="matrix(0.05,0,0,0.05,74.80000000000001,0)" xlink:href="#Q"/><use transform="matrix(0.05,0,0,0.05,78.75000000000001,0)" xlink:href="#P"/><use transform="matrix(0.05,0,0,0.05,88.75000000000001,0)" xlink:href="#I"/><use transform="matrix(0.05,0,0,0.05,97.75000000000001,0)" xlink:href="#K"/><use transform="matrix(0.05,0,0,0.05,106.75,0)" xlink:href="#I"/><use transform="matrix(0.05,0,0,0.05,115.75,0)" xlink:href="#H"/><use transform="matrix(0.05,0,0,0.05,120.75,0)" xlink:href="#P"/><use transform="matrix(0.05,0,0,0.05,130.75,0)" xlink:href="#N"/></g><path fill="#fff" d="M24-231v-30h32v30H24zM-9 49c24 4 33-6 33-30v-209h32V24c2 40-23 58-65 49V49" id="ab"/><g id="j"><use transform="matrix(0.05,0,0,0.05,0,0)" xlink:href="#L"/><use transform="matrix(0.05,0,0,0.05,5.95,0)" xlink:href="#H"/><use transform="matrix(0.05,0,0,0.05,10.95,0)" xlink:href="#X"/><use transform="matrix(0.05,0,0,0.05,16.9,0)" xlink:href="#G"/><use transform="matrix(0.05,0,0,0.05,26.899999999999995,0)" xlink:href="#R"/><use transform="matrix(0.05,0,0,0.05,36.9,0)" xlink:href="#I"/><use transform="matrix(0.05,0,0,0.05,45.9,0)" xlink:href="#W"/><use transform="matrix(0.05,0,0,0.05,50.9,0)" xlink:href="#V"/><use transform="matrix(0.05,0,0,0.05,60.900000000000006,0)" xlink:href="#X"/><use transform="matrix(0.05,0,0,0.05,66.85,0)" xlink:href="#N"/><use transform="matrix(0.05,0,0,0.05,81.8,0)" xlink:href="#P"/><use transform="matrix(0.05,0,0,0.05,91.8,0)" xlink:href="#X"/><use transform="matrix(0.05,0,0,0.05,97.75,0)" xlink:href="#L"/><use transform="matrix(0.05,0,0,0.05,103.7,0)" xlink:href="#ab"/><use transform="matrix(0.05,0,0,0.05,107.65,0)" xlink:href="#I"/><use transform="matrix(0.05,0,0,0.05,116.65,0)" xlink:href="#V"/><use transform="matrix(0.05,0,0,0.05,126.65,0)" xlink:href="#R"/></g><g id="k"><use transform="matrix(0.05,0,0,0.05,0,0)" xlink:href="#L"/><use transform="matrix(0.05,0,0,0.05,5.95,0)" xlink:href="#H"/><use transform="matrix(0.05,0,0,0.05,10.95,0)" xlink:href="#X"/><use transform="matrix(0.05,0,0,0.05,16.9,0)" xlink:href="#G"/><use transform="matrix(0.05,0,0,0.05,26.899999999999995,0)" xlink:href="#R"/><use transform="matrix(0.05,0,0,0.05,36.9,0)" xlink:href="#I"/><use transform="matrix(0.05,0,0,0.05,45.9,0)" xlink:href="#W"/><use transform="matrix(0.05,0,0,0.05,50.9,0)" xlink:href="#V"/><use transform="matrix(0.05,0,0,0.05,60.900000000000006,0)" xlink:href="#X"/><use transform="matrix(0.05,0,0,0.05,66.85,0)" xlink:href="#N"/><use transform="matrix(0.05,0,0,0.05,81.8,0)" xlink:href="#P"/><use transform="matrix(0.05,0,0,0.05,91.8,0)" xlink:href="#X"/><use transform="matrix(0.05,0,0,0.05,97.75,0)" xlink:href="#L"/><use transform="matrix(0.05,0,0,0.05,103.7,0)" xlink:href="#X"/><use transform="matrix(0.05,0,0,0.05,109.65,0)" xlink:href="#P"/><use transform="matrix(0.05,0,0,0.05,119.65,0)" xlink:href="#N"/><use transform="matrix(0.05,0,0,0.05,134.6,0)" xlink:href="#G"/><use transform="matrix(0.05,0,0,0.05,144.6,0)" xlink:href="#X"/><use transform="matrix(0.05,0,0,0.05,150.54999999999998,0)" xlink:href="#S"/></g><g id="l"><use transform="matrix(0.05,0,0,0.05,0,0)" xlink:href="#L"/><use transform="matrix(0.05,0,0,0.05,5.95,0)" xlink:href="#H"/><use transform="matrix(0.05,0,0,0.05,10.95,0)" xlink:href="#X"/><use transform="matrix(0.05,0,0,0.05,16.9,0)" xlink:href="#G"/><use transform="matrix(0.05,0,0,0.05,26.899999999999995,0)" xlink:href="#R"/><use transform="matrix(0.05,0,0,0.05,36.9,0)" xlink:href="#I"/><use transform="matrix(0.05,0,0,0.05,45.9,0)" xlink:href="#W"/><use transform="matrix(0.05,0,0,0.05,50.9,0)" xlink:href="#V"/><use transform="matrix(0.05,0,0,0.05,60.900000000000006,0)" xlink:href="#X"/><use transform="matrix(0.05,0,0,0.05,66.85,0)" xlink:href="#N"/><use transform="matrix(0.05,0,0,0.05,81.8,0)" xlink:href="#P"/><use transform="matrix(0.05,0,0,0.05,91.8,0)" xlink:href="#X"/><use transform="matrix(0.05,0,0,0.05,97.75,0)" xlink:href="#L"/><use transform="matrix(0.05,0,0,0.05,103.7,0)" xlink:href="#K"/><use transform="matrix(0.05,0,0,0.05,112.7,0)" xlink:href="#G"/><use transform="matrix(0.05,0,0,0.05,122.7,0)" xlink:href="#N"/><use transform="matrix(0.05,0,0,0.05,137.65,0)" xlink:href="#Q"/></g><g id="m"><use transform="matrix(0.05,0,0,0.05,0,0)" xlink:href="#L"/><use transform="matrix(0.05,0,0,0.05,5.95,0)" xlink:href="#T"/><use transform="matrix(0.05,0,0,0.05,15.949999999999998,0)" xlink:href="#X"/><use transform="matrix(0.05,0,0,0.05,21.9,0)" xlink:href="#V"/><use transform="matrix(0.05,0,0,0.05,31.899999999999995,0)" xlink:href="#T"/><use transform="matrix(0.05,0,0,0.05,41.9,0)" xlink:href="#L"/><use transform="matrix(0.05,0,0,0.05,47.85,0)" xlink:href="#H"/><use transform="matrix(0.05,0,0,0.05,52.85,0)" xlink:href="#K"/><use transform="matrix(0.05,0,0,0.05,61.85,0)" xlink:href="#T"/><use transform="matrix(0.05,0,0,0.05,71.85,0)" xlink:href="#P"/><use transform="matrix(0.05,0,0,0.05,81.85,0)" xlink:href="#I"/></g><path fill="#fff" d="M85-194c31 0 48 13 60 33l-1-100h32l1 261h-30c-2-10 0-23-3-31C134-8 116 4 85 4 32 4 16-35 15-94c0-66 23-100 70-100zm9 24c-40 0-46 34-46 75 0 40 6 74 45 74 42 0 51-32 51-76 0-42-9-74-50-73" id="ac"/><path fill="#fff" d="M33 0v-38h34V0H33" id="ad"/><g id="n"><use transform="matrix(0.05,0,0,0.05,0,0)" xlink:href="#O"/><use transform="matrix(0.05,0,0,0.05,10,0)" xlink:href="#G"/><use transform="matrix(0.05,0,0,0.05,20,0)" xlink:href="#H"/><use transform="matrix(0.05,0,0,0.05,25,0)" xlink:href="#I"/><use transform="matrix(0.05,0,0,0.05,34,0)" xlink:href="#J"/><use transform="matrix(0.05,0,0,0.05,44,0)" xlink:href="#K"/><use transform="matrix(0.05,0,0,0.05,53,0)" xlink:href="#L"/><use transform="matrix(0.05,0,0,0.05,58.95,0)" xlink:href="#R"/><use transform="matrix(0.05,0,0,0.05,68.95,0)" xlink:href="#V"/><use transform="matrix(0.05,0,0,0.05,78.95,0)" xlink:href="#ac"/><use transform="matrix(0.05,0,0,0.05,88.95,0)" xlink:href="#P"/><use transform="matrix(0.05,0,0,0.05,98.95,0)" xlink:href="#ad"/><use transform="matrix(0.05,0,0,0.05,103.95,0)" xlink:href="#ab"/><use transform="matrix(0.05,0,0,0.05,107.9,0)" xlink:href="#I"/></g><path fill="#fff" d="M63-220v92h138v28H63V0H30v-248h175v28H63" id="ae"/><g id="o"><use transform="matrix(0.05,0,0,0.05,0,0)" xlink:href="#T"/><use transform="matrix(0.05,0,0,0.05,10,0)" xlink:href="#G"/><use transform="matrix(0.05,0,0,0.05,20,0)" xlink:href="#X"/><use transform="matrix(0.05,0,0,0.05,25.950000000000003,0)" xlink:href="#I"/><use transform="matrix(0.05,0,0,0.05,34.95,0)" xlink:href="#P"/><use transform="matrix(0.05,0,0,0.05,44.95,0)" xlink:href="#ae"/><use transform="matrix(0.05,0,0,0.05,55.900000000000006,0)" xlink:href="#M"/><use transform="matrix(0.05,0,0,0.05,59.85,0)" xlink:href="#Q"/><use transform="matrix(0.05,0,0,0.05,63.80000000000001,0)" xlink:href="#P"/><use transform="matrix(0.05,0,0,0.05,73.80000000000001,0)" xlink:href="#T"/><use transform="matrix(0.05,0,0,0.05,83.80000000000001,0)" xlink:href="#G"/><use transform="matrix(0.05,0,0,0.05,93.80000000000001,0)" xlink:href="#H"/><use transform="matrix(0.05,0,0,0.05,98.80000000000001,0)" xlink:href="#aa"/></g><path fill="#fff" d="M145-31C134-9 116 4 85 4 32 4 16-35 15-94c0-59 17-99 70-100 32-1 48 14 60 33 0-11-1-24 2-32h30l-1 268h-32zM93-21c41 0 51-33 51-76s-8-73-50-73c-40 0-46 35-46 75s5 74 45 74" id="af"/><path fill="#fff" d="M87 75C49 33 22-17 22-94c0-76 28-126 65-167h31c-38 41-64 92-64 168S80 34 118 75H87" id="ag"/><path fill="#fff" d="M47-170H22l-4-78h33" id="ah"/><path fill="#fff" d="M33-261c38 41 65 92 65 168S71 34 33 75H2C39 34 66-17 66-93S39-220 2-261h31" id="ai"/><g id="p"><use transform="matrix(0.05,0,0,0.05,0,0)" xlink:href="#X"/><use transform="matrix(0.05,0,0,0.05,5.95,0)" xlink:href="#P"/><use transform="matrix(0.05,0,0,0.05,15.949999999999998,0)" xlink:href="#af"/><use transform="matrix(0.05,0,0,0.05,25.950000000000003,0)" xlink:href="#U"/><use transform="matrix(0.05,0,0,0.05,35.95,0)" xlink:href="#M"/><use transform="matrix(0.05,0,0,0.05,39.900000000000006,0)" xlink:href="#X"/><use transform="matrix(0.05,0,0,0.05,45.85000000000001,0)" xlink:href="#P"/><use transform="matrix(0.05,0,0,0.05,55.85,0)" xlink:href="#ag"/><use transform="matrix(0.05,0,0,0.05,61.80000000000001,0)" xlink:href="#ah"/><use transform="matrix(0.05,0,0,0.05,65.20000000000002,0)" xlink:href="#T"/><use transform="matrix(0.05,0,0,0.05,75.20000000000002,0)" xlink:href="#G"/><use transform="matrix(0.05,0,0,0.05,85.20000000000002,0)" xlink:href="#X"/><use transform="matrix(0.05,0,0,0.05,91.15000000000002,0)" xlink:href="#I"/><use transform="matrix(0.05,0,0,0.05,100.15000000000002,0)" xlink:href="#P"/><use transform="matrix(0.05,0,0,0.05,110.15000000000003,0)" xlink:href="#L"/><use transform="matrix(0.05,0,0,0.05,116.10000000000002,0)" xlink:href="#W"/><use transform="matrix(0.05,0,0,0.05,121.10000000000002,0)" xlink:href="#M"/><use transform="matrix(0.05,0,0,0.05,125.05000000000003,0)" xlink:href="#Q"/><use transform="matrix(0.05,0,0,0.05,129.00000000000003,0)" xlink:href="#P"/><use transform="matrix(0.05,0,0,0.05,139.00000000000003,0)" xlink:href="#T"/><use transform="matrix(0.05,0,0,0.05,149.00000000000003,0)" xlink:href="#G"/><use transform="matrix(0.05,0,0,0.05,159.00000000000003,0)" xlink:href="#H"/><use transform="matrix(0.05,0,0,0.05,164.00000000000003,0)" xlink:href="#aa"/><use transform="matrix(0.05,0,0,0.05,174.00000000000003,0)" xlink:href="#ah"/><use transform="matrix(0.05,0,0,0.05,177.40000000000003,0)" xlink:href="#ai"/></g><g id="q"><use transform="matrix(0.05,0,0,0.05,0,0)" xlink:href="#T"/><use transform="matrix(0.05,0,0,0.05,10,0)" xlink:href="#G"/><use transform="matrix(0.05,0,0,0.05,20,0)" xlink:href="#H"/><use transform="matrix(0.05,0,0,0.05,25,0)" xlink:href="#aa"/></g><g id="r"><use transform="matrix(0.05,0,0,0.05,0,0)" xlink:href="#X"/><use transform="matrix(0.05,0,0,0.05,5.95,0)" xlink:href="#P"/><use transform="matrix(0.05,0,0,0.05,15.949999999999998,0)" xlink:href="#af"/><use transform="matrix(0.05,0,0,0.05,25.950000000000003,0)" xlink:href="#U"/><use transform="matrix(0.05,0,0,0.05,35.95,0)" xlink:href="#M"/><use transform="matrix(0.05,0,0,0.05,39.900000000000006,0)" xlink:href="#X"/><use transform="matrix(0.05,0,0,0.05,45.85000000000001,0)" xlink:href="#P"/><use transform="matrix(0.05,0,0,0.05,55.85,0)" xlink:href="#ag"/><use transform="matrix(0.05,0,0,0.05,61.80000000000001,0)" xlink:href="#ah"/><use transform="matrix(0.05,0,0,0.05,65.20000000000002,0)" xlink:href="#T"/><use transform="matrix(0.05,0,0,0.05,75.20000000000002,0)" xlink:href="#G"/><use transform="matrix(0.05,0,0,0.05,85.20000000000002,0)" xlink:href="#H"/><use transform="matrix(0.05,0,0,0.05,90.20000000000002,0)" xlink:href="#aa"/><use transform="matrix(0.05,0,0,0.05,100.20000000000002,0)" xlink:href="#ah"/><use transform="matrix(0.05,0,0,0.05,103.60000000000002,0)" xlink:href="#ai"/></g><g id="s"><use transform="matrix(0.05,0,0,0.05,0,0)" xlink:href="#I"/><use transform="matrix(0.05,0,0,0.05,9,0)" xlink:href="#Q"/><use transform="matrix(0.05,0,0,0.05,12.949999999999998,0)" xlink:href="#G"/><use transform="matrix(0.05,0,0,0.05,22.95,0)" xlink:href="#I"/><use transform="matrix(0.05,0,0,0.05,31.950000000000003,0)" xlink:href="#aa"/></g><g id="t"><use transform="matrix(0.05,0,0,0.05,0,0)" xlink:href="#X"/><use transform="matrix(0.05,0,0,0.05,5.95,0)" xlink:href="#P"/><use transform="matrix(0.05,0,0,0.05,15.949999999999998,0)" xlink:href="#af"/><use transform="matrix(0.05,0,0,0.05,25.950000000000003,0)" xlink:href="#U"/><use transform="matrix(0.05,0,0,0.05,35.95,0)" xlink:href="#M"/><use transform="matrix(0.05,0,0,0.05,39.900000000000006,0)" xlink:href="#X"/><use transform="matrix(0.05,0,0,0.05,45.85000000000001,0)" xlink:href="#P"/><use transform="matrix(0.05,0,0,0.05,55.85,0)" xlink:href="#ag"/><use transform="matrix(0.05,0,0,0.05,61.80000000000001,0)" xlink:href="#ah"/><use transform="matrix(0.05,0,0,0.05,65.20000000000002,0)" xlink:href="#I"/><use transform="matrix(0.05,0,0,0.05,74.20000000000002,0)" xlink:href="#Q"/><use transform="matrix(0.05,0,0,0.05,78.15000000000002,0)" xlink:href="#G"/><use transform="matrix(0.05,0,0,0.05,88.15000000000002,0)" xlink:href="#I"/><use transform="matrix(0.05,0,0,0.05,97.15000000000002,0)" xlink:href="#aa"/><use transform="matrix(0.05,0,0,0.05,107.15000000000003,0)" xlink:href="#ah"/><use transform="matrix(0.05,0,0,0.05,110.55000000000003,0)" xlink:href="#ai"/></g></defs></g></svg>