<svg xmlns="http://www.w3.org/2000/svg" xmlns:xlink="http://www.w3.org/1999/xlink" xmlns:lucid="lucid" width="432.41" height="385.1"><g transform="translate(-636 -595.7153852527824)" lucid:page-tab-id="0_0"><path d="M696 670.74h320v240H696z" stroke="#cacaca" stroke-width="2" fill="#666"/><path d="M760 910.74l64-240m-128 144l320-120m-320 168h64c64 0 160-48 192-60l64-12m-160-120l16 24c16 24 80 48 80 108" stroke="#cacaca" stroke-width="8" fill="none"/><path d="M756 730.74c18 7.2 18 7.2 36 0 18 7.2 18 7.2 36 0 18 18 18 72-36 90-54-18-54-72-36-90z" stroke="#cacaca" stroke-width="2" fill="#08f"/><path d="M1047.6 871.53c-.52-.53-1.15-.8-1.87-.8h-42.9c-.73 0-1.37.27-1.9.8-.53.54-.8 1.17-.8 1.9v8.03h-6.7c-.75 0-1.57.2-2.45.55-.88.38-1.58.82-2.1 1.35l-8.3 8.3c-.37.36-.68.78-.95 1.25-.27.48-.47.9-.6 1.28-.1.38-.2.9-.26 1.55-.06.66-.1 1.15-.1 1.45-.03.3-.03.83 0 1.6v14.86c-.7 0-1.34.27-1.87.8-.53.54-.8 1.16-.8 1.9 0 .4.06.78.17 1.1.1.32.3.58.56.78.27.2.5.36.7.48.2.12.52.2.98.25l.95.08h1.07c.55 0 .86-.02.95-.02h2.67c0 2.97 1.05 5.5 3.15 7.6 2.08 2.1 4.6 3.14 7.58 3.14 2.96 0 5.48-1.05 7.58-3.15 2.1-2.1 3.14-4.63 3.14-7.6h16.1c0 2.97 1.04 5.5 3.13 7.6 2.1 2.1 4.63 3.14 7.6 3.14 2.95 0 5.48-1.05 7.57-3.15 2.1-2.1 3.14-4.63 3.14-7.6l.94.03h1.08c.16 0 .47-.04.94-.08.46-.04.8-.13.98-.25.2-.12.43-.3.7-.48.26-.2.45-.46.56-.78.12-.32.17-.7.17-1.1V873.4c0-.72-.26-1.35-.8-1.9zm-49.06 51.25c-1.06 1.06-2.3 1.6-3.76 1.6s-2.7-.54-3.78-1.6c-1.06-1.06-1.6-2.32-1.6-3.77 0-1.44.54-2.7 1.6-3.76 1.07-1.06 2.32-1.6 3.78-1.6 1.45 0 2.7.54 3.76 1.6 1.07 1.06 1.6 2.32 1.6 3.77 0 1.46-.53 2.72-1.6 3.78zm1.6-25.23h-16.1v-1.25c0-.36.13-.67.38-.92l8.18-8.17c.25-.25.55-.37.92-.37h6.6zm35.95 25.23c-1.07 1.06-2.33 1.6-3.78 1.6-1.46 0-2.7-.54-3.77-1.6-1.07-1.06-1.6-2.32-1.6-3.77 0-1.44.53-2.7 1.6-3.76 1.06-1.06 2.3-1.6 3.77-1.6 1.45 0 2.7.54 3.77 1.6 1.06 1.06 1.58 2.32 1.58 3.77 0 1.46-.52 2.72-1.6 3.78z" fill="#ffda44"/><path d="M670.33 704.2l12.25 12.2c.67.67 1.88 10.34 1.22 11l-2.43 2.43c-.67.66-1.76.66-2.43 0l-1.27-1.28-9.7-9.7c-3.95-3.95-7.96-7.9-9.84-9.84l-1.22-1.2c-.65-.67-.65-1.77 0-2.44l2.44-2.42c.66-.67 10.32.6 11 1.27z" fill="#d8dbdb"/><path d="M674.88 659.96c-1.82 0-3.34 1.52-3.34 3.35s1.52 3.34 3.34 3.34c1.82 0 3.34-1.5 3.34-3.33 0-1.82-1.52-3.34-3.34-3.34zm10.3 3.64c-1.8 0-3.32 1.52-3.32 3.35 0 1.82 1.5 3.33 3.33 3.33 1.82 0 3.34-1.5 3.34-3.33s-1.52-3.35-3.35-3.35zm37.95 37.34c0-1.83-1.5-3.35-3.34-3.35-1.83 0-3.34 1.5-3.34 3.34 0 1.82 1.5 3.33 3.33 3.33 1.82 0 3.33-1.45 3.33-3.33zm.3 6.97c-1.82 0-3.33 1.53-3.33 3.35s1.5 3.34 3.33 3.34 3.35-1.53 3.35-3.35-1.52-3.34-3.35-3.34z" fill="#676767"/><path d="M701.82 672.95l12.03 12.02c1.33 1.34 14.57 38.3 13.23 39.64l-4.8 4.8c-1.34 1.34-3.46 1.34-4.8 0l-26.52-33.7-33.62-26.4c-1.34-1.32-1.34-3.45 0-4.8l4.8-4.78c1.32-1.33 38.35 11.9 39.68 13.23z" fill="#d8dbdb"/><path d="M732.66 654.14c3.34 3.33.36 11.65-3.58 15.65l-43.4 43.34c-4 4-18.33 12.98-21.66 9.65-3.34-3.35 5.64-17.68 9.64-21.7L717 657.73c4-4 12.33-6.92 15.66-3.58z" fill="#e4e7e7"/><path d="M676.64 704.03l43.34-43.34c3.4-3.4 9.88-6 13.77-4.74-.24-.73-.6-1.34-1.1-1.9-3.32-3.32-11.64-.35-15.65 3.66l-43.34 43.34c-4 4-12.92 18.33-9.64 21.66.48.5 1.27.73 2.24.73.06-5.22 6.98-16.02 10.38-19.42z" fill="#dde0e0"/><path d="M677.6 685.22l6.86 5.33L702 673.02l-.18-.2c-.36-.35-3.76-1.75-8.37-3.5l-15.84 15.9z" fill="#c7caca"/><path d="M696.3 702.5l21.12 26.9c1.22 1.22 3.16 1.27 4.5.24l-23.3-29.43zm-9.7-14.3L656.96 665c-.9 1.34-.8 3.16.37 4.3l26.95 21.13z" fill="#3db39e"/><path d="M684.3 690.43l2.3-2.24-6.7-5.23-2.3 2.25z" fill="#38a592"/><path d="M696 898.74h58v11h-58z" fill="#ecf0f1"/><path d="M712 850.74h26v48h-26z" fill="#556080"/><path d="M696 853.74v45h16v-45M738 853.74v45h16v-45" fill="#8697cb"/><path d="M716 855.74h7v5h-7zM727 855.74h7v5h-7zM742 859.74h8v5h-8zM742 868.74h8v5h-8zM700 859.74h8v5h-8zM700 868.74h8v5h-8zM716 864.74h7v5h-7zM727 864.74h7v5h-7zM716 873.74h7v5h-7zM727 873.74h7v5h-7z" fill="#fff"/><path d="M734 909.74h-18l2-11h14" fill="#ed7161"/><path d="M717 884.74h16v14h-16z" fill="#d0e8f9"/><path d="M733 883.74h-16c-.55 0-1 .45-1 1v14h18v-14c0-.55-.45-1-1-1z" fill="#3d324c"/><path d="M718 885.74h14v13h-14z" fill="#d0e8f9"/><path d="M724 885.74h2v13h-2z" fill="#3d324c"/><path d="M696 887.74c0-4.42 3.58-8 8-8s8 3.58 8 8-3.58 8-8 8-8-3.58-8-8zM738 887.74c0-4.42 3.58-8 8-8s8 3.58 8 8-3.58 8-8 8-8-3.58-8-8z" fill="#a4e869"/><path d="M706.3 888.03l-2.3 2.3-2.3-2.3c-.38-.4-1.02-.4-1.4 0-.4.4-.4 1.03 0 1.42l2.7 2.7v16.6c0 .55.45 1 1 1s1-.45 1-1v-16.6l2.7-2.7c.4-.4.4-1.03 0-1.42-.38-.4-1.02-.4-1.4 0zM749.7 888.03c-.38-.4-1.02-.4-1.4 0l-2.3 2.3-2.3-2.3c-.38-.4-1.02-.4-1.4 0-.4.4-.4 1.03 0 1.42l2.7 2.7v16.6c0 .55.45 1 1 1s1-.45 1-1v-16.6l2.7-2.7c.4-.4.4-1.03 0-1.42z" fill="#7f6e5d"/><path d="M1015.7 960h-3.77v-2h1.76v-2.2h2zm-7.75 0h-5.97v-2h5.97zm-9.95 0h-5.97v-2H998zm-9.94 0h-5.97v-2h5.96zm-9.95 0h-5.96v-2h5.97zm-9.94 0h-5.96v-2h5.96zm-9.94 0h-5.97v-2h5.97zm-9.95 0h-5.96v-2h5.97zm-9.94 0h-5.97v-2h5.97zm-9.95 0h-5.97v-2h5.98zm-9.94 0h-5.97v-2h5.97zm-9.95 0h-5.98v-2h5.97zm-9.96 0h-5.96v-2h5.96zm-50.32 0h-5.37v-2h5.37zm-9.35 0h-5.97v-2h5.97zm-9.95 0h-5.96v-2h5.96zm-9.94 0H813v-2H819zm-9.95 0h-5.97v-2h5.97zm-9.94 0h-5.98v-2h5.97zm-9.96 0h-5.97v-2h5.97zm-9.95 0h-5.97v-2h5.96zm-9.95 0h-5.97v-2h5.97zm-9.95 0h-5.96v-2h5.96zm-9.94 0h-5.97v-2h5.96zm-9.95 0h-5.96v-2h5.97zm-9.93 0h-6.44v-1.52h1V958h5.44zm159.13 0h-5.38v-2h5.38zm-163.57-5.5h-2v-5.96h2zm290.66-2.67h-2v-5.96h2zm-290.67-7.27h-2v-5.97h2zm290.66-2.67h-2v-5.98h2zm-290.67-7.3h-2v-5.95h2zm290.66-2.66h-2v-5.97h2zm-290.67-7.27h-2v-5.97h2zM1015.7 922h-2v-3h2zm-290.67-7.28h-2v-2.98h2z" fill="#d8d8d8"/><path fill="#d8d8d8"/><path d="M728.66 926h-9.27l4.63-14.26z" fill="#d8d8d8"/><path d="M730.04 927H718l5.3-16.26h1.45zm-9.27-2h6.52l-3.27-10.03z" fill="#d8d8d8"/><use xlink:href="#a" transform="matrix(1,0,0,1,848.2230999999999,948.2121224511677) translate(0 14.4)"/><path d="M974.73 688.73h22.54V701h-22.54zM969.46 709.78h33.08v12.28h-33.08z" fill="#ff382e"/><path d="M971.22 730.84h29.56v5.27h-29.56z" fill="#de2f1b"/><path d="M964.2 730.84h8.77v21.06h-8.77zM999.03 730.84h8.77v21.06h-8.77z" fill="#ff382e"/><path d="M986 681.27c-.73 0-1.3-.6-1.3-1.32v-7.9c0-.72.57-1.3 1.3-1.3.73 0 1.3.58 1.3 1.3v7.9c0 .73-.57 1.32-1.3 1.32z" fill="#1c1918"/><path d="M986 736.1h13.03v15.8H986z" fill="#d19884"/><path d="M972.97 736.1H986v15.8h-13.03z" fill="#c1765b"/><path d="M1006.05 720.32h-40.1l-5.26 10.52h50.6M1000.78 699.25h-29.56l-5.27 10.53h40.1M986 678.2l-14.78 10.53h29.56" fill="#3f3736"/><path d="M1004.3 711.1h-36.6c-2.77 0-5.26-1.75-6.2-4.38-.24-.68.12-1.43.8-1.68.7-.25 1.44.12 1.7.8.55 1.58 2.04 2.62 3.7 2.62h36.6c1.66 0 3.15-1.05 3.7-2.63.26-.68 1-1.04 1.7-.8.68.26 1.04 1 .8 1.7-.94 2.62-3.43 4.37-6.2 4.37zM999.03 690.04h-26.06c-2.77 0-5.26-1.75-6.2-4.37-.24-.7.1-1.44.8-1.7.68-.23 1.44.12 1.68.8.57 1.58 2.06 2.64 3.72 2.64h26.06c1.66 0 3.15-1.05 3.72-2.62.24-.7 1-1.04 1.68-.8.68.25 1.04 1 .8 1.68-.94 2.62-3.43 4.38-6.2 4.38zM1009.56 732.16h-47.12c-2.77 0-5.26-1.76-6.2-4.38-.24-.68.12-1.44.8-1.68.7-.25 1.44.1 1.68.8.57 1.57 2.06 2.63 3.72 2.63h47.12c1.66 0 3.15-1.06 3.72-2.63.24-.7 1-1.05 1.68-.8.68.24 1.04 1 .8 1.68-.94 2.62-3.43 4.38-6.2 4.38z" fill="#3f3736"/><path d="M999.03 737.42h-26.06c-.73 0-1.32-.58-1.32-1.3 0-.74.6-1.33 1.32-1.33h26.06c.73 0 1.32.58 1.32 1.3 0 .74-.6 1.32-1.32 1.32z" fill="#d19884"/><path d="M1014.52 753.22h-57.04c-.72 0-1.3-.6-1.3-1.32 0-.73.58-1.32 1.3-1.32h57.04c.72 0 1.3.6 1.3 1.32 0 .72-.58 1.32-1.3 1.32z" fill="#ff382e"/><path d="M990.33 667.32l.03 2.4-2 .03-.03-2.37-.03-.58 2-.1zm-.88-10.23l.4 3.12.23 2.46-2 .18-.2-2.42-.4-3.05-.07-.4 1.98-.33zm-252.6-1.46l-2.74 1.17-.77-1.83 2.75-1.17zm9.18-3.9l-5.5 2.34-.78-1.84 5.5-2.34zm241.66-2.8l.66 2.53.27 1.24-1.96.43-.26-1.2-.63-2.46-.62-2.02 1.9-.6zm-232.5-1.1l-5.5 2.34-.78-1.84 5.5-2.34zm9.2-3.72l-3.92 1.48-1.6.7-.8-1.86 1.65-.7 3.96-1.5zm219.03-5.92l.97 1.93.9 2.03.37.88-1.86.74-.33-.84-.88-1.95-.94-1.86-.35-.64 1.76-.97zm-209.7 2.4l-5.6 2.12-.7-1.87 5.58-2.1zm9.3-3.5l-5.6 2.1-.7-1.87 5.6-2.1zm9.36-3.3l-4.72 1.54-.92.35-.7-1.88.95-.36 4.76-1.57zm185.3-4.16l1.27 1.6 1.2 1.64.8 1.16-1.67 1.12-.76-1.13-1.16-1.58-1.2-1.52-.4-.45 1.5-1.3zm-175.85 1.02l-5.68 1.88-.63-1.9 5.68-1.88zm9.46-3.12l-5.67 1.87-.63-1.9 5.68-1.86zm158.9-5.17l1.67 1.38 1.58 1.4 1.07 1.05-1.4 1.43-1.03-1-1.53-1.36-1.62-1.33-.22-.16 1.2-1.6zm-149.37 2.4l-5.75 1.62-.55-1.93 5.75-1.64zm5.77-1.66l-1.94.56-.55-1.92 2.5-.7zm135.67-5.9l2.2 1.24 2.02 1.28.16.1-1.13 1.66-.13-.1-1.97-1.23-2.1-1.2-.85-.44.92-1.76zm-7.65-3.55l2.76 1.14.4.18-.84 1.8-.37-.16-2.68-1.1-2.44-.9.7-1.88zm-85.45-.44l-5.87 1.16-.38-1.96 5.86-1.15zm75.55-2.7l3.56.98-.53 1.93-3.52-.96-2.23-.5.45-1.96zm-65.75 1.2l-5.9.9-.3-1.97 5.9-.9zm57.3-2.94l2.24.4-.36 1.98-2.2-.4-3.66-.53.3-1.97zm-47.46 1.7l-5.93.65-.22-1.98 5.94-.65zm9.9-.9l-4.6.3-1.33.16-.22-2 1.37-.14 4.63-.32zm26.98-2.07l2.9.27-.2 2-2.86-.3-3.07-.17.12-2zm-17.1 1.6l-4.83.12-1.1.07-.12-2 1.13-.08 4.88-.13zm9.96-2l-.03 2-5.96-.1.03-2zM733.46 655.3l-.1-.26.75 1.77-.16.1-.07-.6-.15-.35-.27-.08-1.74-.2 1.6-.7z" fill="#d8d8d8"/><path d="M989.36 669.74l-5.87-13.8 9.22-.82z" fill="#d8d8d8"/><path d="M990.16 670.74h-1.46l-6.67-15.68L994 654zm-5.2-13.93l4.12 9.7 2.36-10.26z" fill="#d8d8d8"/><use xlink:href="#a" transform="matrix(1,0,0,1,826.5980383027141,606.7153852527824) translate(0 14.4)"/><defs><path fill="#fff" d="M115-194c55 1 70 41 70 98S169 2 115 4C84 4 66-9 55-30l1 105H24l-1-265h31l2 30c10-21 28-34 59-34zm-8 174c40 0 45-34 45-75s-6-73-45-74c-42 0-51 32-51 76 0 43 10 73 51 73" id="b"/><path fill="#fff" d="M141-36C126-15 110 5 73 4 37 3 15-17 15-53c-1-64 63-63 125-63 3-35-9-54-41-54-24 1-41 7-42 31l-33-3c5-37 33-52 76-52 45 0 72 20 72 64v82c-1 20 7 32 28 27v20c-31 9-61-2-59-35zM48-53c0 20 12 33 32 33 41-3 63-29 60-74-43 2-92-5-92 41" id="c"/><path fill="#fff" d="M59-47c-2 24 18 29 38 22v24C64 9 27 4 27-40v-127H5v-23h24l9-43h21v43h35v23H59v120" id="d"/><path fill="#fff" d="M106-169C34-169 62-67 57 0H25v-261h32l-1 103c12-21 28-36 61-36 89 0 53 116 60 194h-32v-121c2-32-8-49-39-48" id="e"/><g id="a"><use transform="matrix(0.05,0,0,0.05,0,0)" xlink:href="#b"/><use transform="matrix(0.05,0,0,0.05,10,0)" xlink:href="#c"/><use transform="matrix(0.05,0,0,0.05,20,0)" xlink:href="#d"/><use transform="matrix(0.05,0,0,0.05,25,0)" xlink:href="#e"/></g></defs></g></svg>